<?xml version="1.0" encoding="UTF-8"?>
<svg version="1.1" xmlns="http://www.w3.org/2000/svg" width="144" height="144">
<path d="M0 0 C0.75709763 -0.00671722 1.51419525 -0.01343445 2.29423523 -0.02035522 C4.77776797 -0.03923243 7.26102905 -0.04325401 9.74462891 -0.04541016 C11.4842642 -0.05184467 13.22389842 -0.05857351 14.96353149 -0.06558228 C18.60315458 -0.07752894 22.24268292 -0.08126574 25.88232422 -0.08007812 C30.5280455 -0.07987496 35.17315492 -0.10718636 39.81873131 -0.14162254 C43.41001128 -0.16394387 47.00114512 -0.16791409 50.59248734 -0.16685867 C52.30437963 -0.16920639 54.01627646 -0.17798285 55.72809982 -0.19352341 C74.66785231 -0.34938854 74.66785231 -0.34938854 82.43603516 6.29052734 C82.96326172 6.95052734 83.49048828 7.61052734 84.03369141 8.29052734 C84.57896484 8.95052734 85.12423828 9.61052734 85.68603516 10.29052734 C90.0697725 16.50790552 90.21808616 22.98900871 90.24145508 30.45996094 C90.24481369 31.13903 90.2481723 31.81809906 90.25163269 32.51774597 C90.26105786 34.74150469 90.26308144 36.96518745 90.26416016 39.18896484 C90.26737833 40.74923736 90.27074282 42.30950959 90.27424622 43.86978149 C90.28021621 47.13275858 90.28208829 50.39570925 90.28149414 53.65869141 C90.28139258 57.81995759 90.29504814 61.98105293 90.31226635 66.14227867 C90.32343638 69.36295332 90.32541183 72.5835873 90.32488441 75.80427933 C90.32605687 77.33752659 90.33043692 78.87077517 90.33821678 80.40400314 C90.43544967 101.54254502 90.43544967 101.54254502 84.09619141 109.29052734 C77.66752299 115.57308966 71.0881757 117.75308933 62.18652344 117.69458008 C61.06769775 117.70487495 61.06769775 117.70487495 59.92626953 117.71537781 C57.48531505 117.73352757 55.04501072 117.72982501 52.60400391 117.72412109 C50.89061274 117.72868903 49.17722339 117.73399642 47.46383667 117.74000549 C43.88141413 117.74891374 40.29921478 117.74654018 36.71679688 117.73657227 C32.14851237 117.72509365 27.58100216 117.74528848 23.01281929 117.7744894 C19.47638129 117.7929254 15.94012624 117.79254415 12.40365219 117.78685188 C10.72050771 117.78669953 9.03735015 117.7926722 7.35425186 117.80514336 C-12.1491455 117.92930224 -12.1491455 117.92930224 -20.34130859 111.32568359 C-20.85693359 110.67470703 -21.37255859 110.02373047 -21.90380859 109.35302734 C-22.44005859 108.70462891 -22.97630859 108.05623047 -23.52880859 107.38818359 C-26.75681432 102.46364077 -27.20136444 98.01224061 -27.19433594 92.23071289 C-27.20105316 91.43328674 -27.20777039 90.6358606 -27.21469116 89.81427002 C-27.23364614 87.18519816 -27.23759421 84.55638198 -27.23974609 81.92724609 C-27.24617624 80.09267574 -27.25290476 78.25810642 -27.25991821 76.42353821 C-27.27188507 72.57945377 -27.27559969 68.73545916 -27.27441406 64.89135742 C-27.27421102 59.97869478 -27.30150077 55.06661157 -27.33595848 50.15408611 C-27.35825706 46.36468387 -27.36225068 42.57542036 -27.36119461 38.78595924 C-27.36354659 36.97555357 -27.3723473 35.16514383 -27.38785934 33.35480309 C-27.40757771 30.81563793 -27.4016588 28.27771288 -27.38964844 25.73852539 C-27.40088745 24.99903152 -27.41212646 24.25953766 -27.42370605 23.49763489 C-27.34662332 17.04591197 -25.16950177 11.9719869 -21.00927734 7.04833984 C-20.37634766 6.50951172 -19.74341797 5.97068359 -19.09130859 5.41552734 C-18.46611328 4.86123047 -17.84091797 4.30693359 -17.19677734 3.73583984 C-11.89955219 0.39687339 -6.1127688 -0.00792169 0 0 Z " fill="#F51B2C" transform="translate(40.90380859375,11.70947265625)"/>
<path d="M0 0 C1.29210136 0.00212242 1.29210136 0.00212242 2.61030579 0.00428772 C5.36133294 0.00988485 8.11227869 0.02243679 10.86328125 0.03515625 C12.72851445 0.04017162 14.59374892 0.04473446 16.45898438 0.04882812 C21.03128136 0.05985333 25.6035175 0.07711598 30.17578125 0.09765625 C30.27548646 5.73521914 30.34764092 11.37225625 30.39550781 17.01049805 C30.41548544 18.92400059 30.44267724 20.83744317 30.47753906 22.75073242 C30.72702632 36.80640425 30.56500226 49.2950034 20.2734375 60.09375 C12.47356174 67.56463275 4.93816126 70.5878991 -5.87890625 70.44921875 C-6.89210938 70.41570312 -7.9053125 70.3821875 -8.94921875 70.34765625 C-10.00109375 70.32960938 -11.05296875 70.3115625 -12.13671875 70.29296875 C-14.69962207 70.24637051 -17.26204842 70.17464968 -19.82421875 70.09765625 C-19.82421875 64.48765625 -19.82421875 58.87765625 -19.82421875 53.09765625 C-25.10421875 53.09765625 -30.38421875 53.09765625 -35.82421875 53.09765625 C-35.90568108 49.11807057 -35.96494737 45.14017797 -36.01171875 41.16015625 C-36.03685547 40.04318359 -36.06199219 38.92621094 -36.08789062 37.77539062 C-36.18317216 26.94505666 -34.12849917 19.20780798 -26.82421875 11.09765625 C-19.06894167 3.21494504 -10.98753292 -0.06770562 0 0 Z " fill="#FDF5F5" transform="translate(74.82421875,33.90234375)"/>
<path d="M0 0 C1.30388672 0.01353516 2.60777344 0.02707031 3.95117188 0.04101562 C7.15537622 0.07622666 10.35872105 0.12547906 13.5625 0.1875 C13.68739723 4.56159304 13.77743781 8.9347039 13.8371582 13.31005859 C13.86208838 14.79396679 13.89604625 16.27775495 13.93969727 17.76123047 C14.23011663 27.89515797 13.88834572 36.54101531 6.55517578 44.31567383 C4.64588477 46.10542284 2.68500054 47.65929961 0.5625 49.1875 C-0.324375 49.826875 -1.21125 50.46625 -2.125 51.125 C-7.46922032 52.83918388 -12.87350768 52.4103899 -18.4375 52.1875 C-18.4375 49.5475 -18.4375 46.9075 -18.4375 44.1875 C-17.11685547 44.00574219 -17.11685547 44.00574219 -15.76953125 43.8203125 C-14.60808594 43.65273437 -13.44664063 43.48515625 -12.25 43.3125 C-11.10144531 43.15007812 -9.95289062 42.98765625 -8.76953125 42.8203125 C-5.73079863 42.24320267 -3.21626138 41.52879648 -0.4375 40.1875 C0.79646041 38.4732711 0.79646041 38.4732711 1.5625 36.1875 C2.06136719 35.21039063 2.56023437 34.23328125 3.07421875 33.2265625 C5.16178934 28.37473002 5.12526478 23.46393225 5.25 18.25 C5.28416016 17.27998047 5.31832031 16.30996094 5.35351562 15.31054688 C5.43538574 12.93631363 5.50473078 10.56242123 5.5625 8.1875 C2.55965789 8.22079764 -0.43610384 8.288293 -3.4375 8.375 C-4.27667969 8.38080078 -5.11585937 8.38660156 -5.98046875 8.39257812 C-12.28105345 8.61236596 -16.61769726 10.05117477 -21.4375 14.1875 C-25.25855697 18.58049862 -26.06647437 22.38529783 -26.1875 28.0625 C-26.21714844 28.75085938 -26.24679688 29.43921875 -26.27734375 30.1484375 C-26.34730536 31.82751626 -26.39475211 33.50750812 -26.4375 35.1875 C-29.4075 35.1875 -32.3775 35.1875 -35.4375 35.1875 C-36.23939933 25.14890842 -35.4110992 17.52010016 -29.4375 9.1875 C-26.98585048 6.68632221 -24.52441601 4.83132346 -21.4375 3.1875 C-20.49648438 2.64609375 -19.55546875 2.1046875 -18.5859375 1.546875 C-12.75694766 -0.89050429 -6.18940812 -0.12185104 0 0 Z " fill="#F82736" transform="translate(82.4375,42.8125)"/>
<path d="M0 0 C0.10841951 1.91541138 0.18578079 3.83259773 0.25 5.75 C0.29640625 6.81734375 0.3428125 7.8846875 0.390625 8.984375 C-0.08734897 12.67433406 -1.13127178 13.72626726 -4 16 C-6.40545638 17.20272819 -7.94996953 17.10071472 -10.625 17.0625 C-11.85089844 17.04896484 -11.85089844 17.04896484 -13.1015625 17.03515625 C-13.72804688 17.02355469 -14.35453125 17.01195313 -15 17 C-15.76595745 6.32765957 -15.76595745 6.32765957 -13.125 1.75 C-8.72783423 -0.71241283 -4.92847709 -0.43064363 0 0 Z " fill="#F82432" transform="translate(79,61)"/>
<path d="M0 0 C0.66 0 1.32 0 2 0 C0.71480435 2.86697492 -0.57129254 4.97607712 -3 7 C-3.66 7 -4.32 7 -5 7 C-5 7.66 -5 8.32 -5 9 C-5.66 8.67 -6.32 8.34 -7 8 C-5.88200014 6.66079162 -4.75538103 5.32877444 -3.625 4 C-2.68527344 2.88625 -2.68527344 2.88625 -1.7265625 1.75 C-1.15679687 1.1725 -0.58703125 0.595 0 0 Z " fill="#E6232F" transform="translate(23,16)"/>
</svg>
