<svg xmlns="http://www.w3.org/2000/svg" viewBox="0 0 220 44" fill="none">
  <!-- B Mark — stylized database/terminal B -->
  <g transform="translate(4, 4)">
    <rect x="0" y="0" width="36" height="36" rx="8" fill="#e63946" fill-opacity="0.12"/>
    <rect x="0" y="0" width="36" height="36" rx="8" stroke="#e63946" stroke-width="1.5"/>
    <path d="M10 26V10h6.5c2.5 0 4.2.5 5.1 1.5.9 1 1.4 2.4 1.4 4.2 0 1.2-.3 2.2-.9 3-.6.8-1.5 1.3-2.6 1.6v.1c1.4.2 2.5.7 3.1 1.6.7.9 1 2.1 1 3.6 0 1.8-.5 3.2-1.5 4.2s-2.5 1.5-4.4 1.5H10zm4.5-9.8h2.6c1.3 0 2.1-.2 2.6-.7.5-.5.7-1.2.7-2.2 0-1.9-.9-2.8-2.6-2.8h-3.3v5.7zm0 3.6v6.2h3.3c1.9 0 3-.9 3-2.7s-1.1-3-3.2-3.5H14.5z" fill="#e63946"/>
  </g>
  <!-- basemake text -->
  <text x="50" y="29" font-family="system-ui, -apple-system, sans-serif" font-size="22" font-weight="700" letter-spacing="-0.3" fill="white">basemake</text>
</svg>
