<?xml version="1.0" encoding="UTF-8"?>
<svg version="1.1" xmlns="http://www.w3.org/2000/svg" width="1024" height="1024">
<path d="M0 0 C1.17677736 3.72320023 1.133756 7.26215936 1.14526367 11.1484375 C1.14862228 11.86126389 1.1519809 12.57409027 1.15544128 13.30851746 C1.16493389 15.66402944 1.16689417 18.01947008 1.16796875 20.375 C1.17118473 22.02205433 1.17454906 23.66910837 1.17805481 25.31616211 C1.18404344 28.77279318 1.18589521 32.22939927 1.18530273 35.68603516 C1.18520164 40.08586235 1.1988004 44.48552626 1.21607494 48.88531494 C1.22727624 52.29140944 1.22921939 55.69746564 1.22869301 59.10357666 C1.22986297 60.72365883 1.23422859 62.34374232 1.24202538 63.96380615 C1.34404288 87.37028132 -3.36308957 107.04835392 -20.0625 124.12109375 C-32.60521963 136.56433115 -48.92768462 143.34359506 -66.5927124 143.33988953 C-67.71196106 143.32440567 -68.83120972 143.30892181 -69.984375 143.29296875 C-71.16598206 143.28872391 -72.34758911 143.28447906 -73.56500244 143.28010559 C-77.29357896 143.26347753 -81.02159025 143.22585515 -84.75 143.1875 C-87.29686713 143.17243266 -89.84374283 143.15874787 -92.390625 143.14648438 C-98.59413645 143.11619379 -104.79644475 143.05744033 -111 143 C-111 131.45 -111 119.9 -111 108 C-112.98 108.495 -112.98 108.495 -115 109 C-116.24716797 108.78150391 -116.24716797 108.78150391 -117.51953125 108.55859375 C-123.58205249 107.58559651 -129.72827272 108.00225663 -135.85351562 108.12695312 C-136.85447266 108.13791016 -137.85542969 108.14886719 -138.88671875 108.16015625 C-139.79639404 108.17699463 -140.70606934 108.19383301 -141.64331055 108.21118164 C-144 108 -144 108 -147 106 C-147.29312668 103.2747868 -147.39585937 100.7808828 -147.36328125 98.0546875 C-147.36402901 96.85067795 -147.36402901 96.85067795 -147.36479187 95.62234497 C-147.36244595 93.91243026 -147.35268709 92.20251244 -147.33618164 90.49267578 C-147.31303002 87.93358595 -147.31556104 85.37557094 -147.32226562 82.81640625 C-147.28400763 59.5871705 -144.0158849 37.41160316 -127 20 C-126.34 20 -125.68 20 -125 20 C-125 19.34 -125 18.68 -125 18 C-106.96679592 3.24287718 -87.33207413 -0.39087875 -64.6875 -0.75 C-63.84968994 -0.7677951 -63.01187988 -0.78559021 -62.14868164 -0.80392456 C-41.42454806 -1.24398886 -20.71323642 -0.67324125 0 0 Z M-114 37 C-123.5755785 49.47669436 -126.19233827 62.07315235 -126.125 77.4375 C-126.12886719 78.34693359 -126.13273437 79.25636719 -126.13671875 80.19335938 C-126.13542969 81.05638672 -126.13414063 81.91941406 -126.1328125 82.80859375 C-126.13168457 83.59032959 -126.13055664 84.37206543 -126.12939453 85.17749023 C-126.19863312 87.01978495 -126.19863312 87.01978495 -125 88 C-122.46950598 88.07313567 -119.96695163 88.09247527 -117.4375 88.0625 C-116.72658203 88.05798828 -116.01566406 88.05347656 -115.28320312 88.04882812 C-113.52209987 88.03700864 -111.76103964 88.01907263 -110 88 C-110.02320313 86.82824219 -110.04640625 85.65648437 -110.0703125 84.44921875 C-110.27253846 70.28887412 -110.08103454 57.55582334 -100.4375 46.15234375 C-92.88234622 39.05122565 -82.82474672 35.89310149 -72.7109375 35.71875 C-71.8930777 35.70034058 -71.0752179 35.68193115 -70.23257446 35.66296387 C-67.61345585 35.60424664 -64.99427001 35.55149033 -62.375 35.5 C-59.77716116 35.44830412 -57.17939952 35.39513638 -54.58169556 35.33703613 C-52.96668389 35.30093678 -51.35158719 35.26839226 -49.73641968 35.2401123 C-44.43862704 35.12209129 -39.26030597 34.6453722 -34 34 C-34.0445774 39.7439514 -34.11484589 45.48684747 -34.20751953 51.23022461 C-34.23550427 53.1783807 -34.25682899 55.1266456 -34.27099609 57.07495117 C-34.38315998 71.63756252 -34.53413556 85.22650044 -44.57421875 96.8359375 C-51.85341889 103.3297811 -60.52950106 106.06087164 -70.0625 106.5625 C-70.82167725 106.6049585 -71.58085449 106.64741699 -72.36303711 106.69116211 C-77.91577406 106.9849671 -83.43896188 107.08827045 -89 107 C-89 112.61 -89 118.22 -89 124 C-85.08289945 124.08185891 -81.16755414 124.14091527 -77.25 124.1875 C-76.15816406 124.21263672 -75.06632812 124.23777344 -73.94140625 124.26367188 C-58.43576201 124.40129594 -45.59444992 120.13277038 -34.3203125 109.37109375 C-22.91062691 97.71170124 -19.14955149 85.17814816 -19 69 C-18.98630371 68.06607422 -18.97260742 67.13214844 -18.95849609 66.16992188 C-18.75626812 50.74212002 -19.27052967 35.40835656 -20 20 C-27.87649443 19.93004617 -35.75291412 19.87696092 -43.62964249 19.84456348 C-47.28836401 19.82900302 -50.94687077 19.80794434 -54.60546875 19.77368164 C-58.14572975 19.74074009 -61.68578606 19.72307496 -65.22618866 19.71536827 C-67.21338155 19.70724482 -69.20049374 19.68388311 -71.18756104 19.66011047 C-87.93110848 19.65705176 -102.47741809 24.41010899 -114 37 Z M-84.64453125 59.5 C-87.96285503 63.76165997 -89.13003067 66.54493972 -89.09765625 71.88671875 C-89.09443359 72.82451172 -89.09121094 73.76230469 -89.08789062 74.72851562 C-89.07951172 75.70498047 -89.07113281 76.68144531 -89.0625 77.6875 C-89.05798828 78.67556641 -89.05347656 79.66363281 -89.04882812 80.68164062 C-89.03704303 83.12115474 -89.02059011 85.56054689 -89 88 C-85.85449187 88.11792821 -82.70956459 88.18781383 -79.5625 88.25 C-78.24475586 88.30027344 -78.24475586 88.30027344 -76.90039062 88.3515625 C-70.55372371 88.44524024 -65.43135257 87.41880711 -60 84 C-56.09099184 79.30919021 -54.86188692 75.44073521 -54.90234375 69.453125 C-54.90556641 68.60878906 -54.90878906 67.76445312 -54.91210938 66.89453125 C-54.92048828 66.02183594 -54.92886719 65.14914062 -54.9375 64.25 C-54.94201172 63.36183594 -54.94652344 62.47367187 -54.95117188 61.55859375 C-54.962926 59.37232671 -54.97935751 57.18619821 -55 55 C-58.54150893 54.91238337 -62.08273633 54.85940261 -65.625 54.8125 C-67.12353516 54.77479492 -67.12353516 54.77479492 -68.65234375 54.73632812 C-75.03089832 54.672965 -79.71858253 55.00697314 -84.64453125 59.5 Z " fill="#FC0E22" transform="translate(212,409)"/>
<path d="M0 0 C6.2458164 5.15507092 9.95161504 12.16469623 10.76242065 20.24150085 C10.85389314 22.39939655 10.89095093 24.55117056 10.90625 26.7109375 C10.9208728 27.50094147 10.93549561 28.29094543 10.95056152 29.10488892 C10.99670896 31.61154194 11.03109154 34.11812174 11.0625 36.625 C11.10401841 39.92475523 11.1578255 43.22398967 11.21875 46.5234375 C11.22666565 47.63481583 11.22666565 47.63481583 11.23474121 48.76864624 C11.30667978 58.27352257 11.30667978 58.27352257 15.5625 66.25 C16.04358275 64.83398286 16.52228141 63.41715563 17 62 C17.26683594 61.21109375 17.53367187 60.4221875 17.80859375 59.609375 C18.48204708 57.50178012 19.05400595 55.40246027 19.5625 53.25 C23.55970397 54.05124134 26.50805961 55.8900775 29.953125 57.99609375 C36.22322103 61.00911894 42.35100752 61.5737751 49.1875 61.5 C49.91195312 61.50773438 50.63640625 61.51546875 51.3828125 61.5234375 C55.82191067 61.50735381 59.38068015 60.91217445 63.5625 59.25 C64.02602599 54.68778709 64.02602599 54.68778709 62.40698242 50.61108398 C59.96486196 48.8089898 57.83325969 48.39562452 54.86328125 47.78515625 C53.17235352 47.42067383 53.17235352 47.42067383 51.44726562 47.04882812 C50.26841797 46.80583984 49.08957031 46.56285156 47.875 46.3125 C27.22403777 42.05374125 27.22403777 42.05374125 20.40625 32.65625 C16.7784003 26.95534333 16.01157196 21.33067424 17.1875 14.75 C19.25641779 6.89352132 23.0803854 2.05355257 29.79296875 -2.42578125 C37.31653342 -6.02308509 44.58526184 -7.2830856 52.875 -7.1875 C54.24422607 -7.17831543 54.24422607 -7.17831543 55.64111328 -7.16894531 C65.9574714 -6.93178765 74.85480382 -4.42012774 83.5625 1.25 C81.97289668 7.48440168 80.28649099 13.41287645 77.5625 19.25 C73.55259223 17.69777764 69.65201146 15.94622277 65.74609375 14.15234375 C61.16082851 12.25753826 57.03359871 12.03046346 52.0625 11.9375 C50.7528125 11.90011719 49.443125 11.86273438 48.09375 11.82421875 C44.52511015 11.95417573 44.52511015 11.95417573 42.1015625 14.109375 C40.33429945 16.1582828 40.33429945 16.1582828 40.4375 18.8125 C42.07082402 22.35136872 43.9770821 22.76596941 47.5625 24.25 C50.78724181 25.02886621 54.04289946 25.57000345 57.3125 26.125 C67.75820674 28.08604966 76.07662176 30.06105927 82.40625 39.1875 C86.08310189 45.74620878 87.4695043 52.73916528 85.9765625 60.1640625 C83.61954652 67.47685566 80.114913 72.55916852 73.4609375 76.4921875 C60.87272153 82.58612951 44.86905282 83.38468597 31.5625 79.25 C26.6194656 77.37612928 21.74185615 75.34804734 17.01953125 72.96875 C13.74395093 72.01055162 12.54912769 72.66749896 9.5625 74.25 C7.60146023 75.41974302 5.66398617 76.62975599 3.75 77.875 C2.77417969 78.50664063 1.79835938 79.13828125 0.79296875 79.7890625 C0.05691406 80.27117187 -0.67914063 80.75328125 -1.4375 81.25 C-5.3125 77.5 -5.3125 77.5 -6.4375 75.25 C-7.4275 74.92 -8.4175 74.59 -9.4375 74.25 C-9.7675 74.91 -10.0975 75.57 -10.4375 76.25 C-12.07784193 76.97904086 -13.75051918 77.63655243 -15.4375 78.25 C-16.241875 78.600625 -17.04625 78.95125 -17.875 79.3125 C-27.51787015 82.84037932 -37.99187308 81.89568056 -47.4375 78.25 C-54.47460007 74.7978377 -58.76514026 70.13567452 -62.4375 63.25 C-64.75077028 56.31018917 -64.45191761 48.45057144 -61.375 41.8125 C-56.74086654 33.82573925 -50.25412375 29.68864061 -41.4375 27.25 C-32.14234002 25.48712483 -21.72846506 23.62839586 -12.4375 26.25 C-13.72640304 19.28033179 -13.72640304 19.28033179 -18.4375 14.25 C-27.24607021 10.1529906 -36.56913865 12.4020303 -45.4375 15.25 C-50.79916339 17.20756047 -50.79916339 17.20756047 -54.4375 21.25 C-55.0975 21.25 -55.7575 21.25 -56.4375 21.25 C-57.7575 15.64 -59.0775 10.03 -60.4375 4.25 C-56.96727338 1.47381871 -54.45030182 -0.45925918 -50.625 -2.375 C-49.83480469 -2.77976562 -49.04460937 -3.18453125 -48.23046875 -3.6015625 C-33.32174506 -9.73186287 -13.46480642 -9.09247075 0 0 Z M-38.4375 46.25 C-40.40910251 50.34766237 -40.74452033 53.27475894 -39.375 57.625 C-37.13211785 60.66374356 -35.98512042 61.14640785 -32.4375 62.25 C-26.01526226 62.91556165 -19.862096 63.14458174 -14.4375 59.25 C-12.04830431 56.78097438 -11.46521784 55.52024897 -11.109375 52.05078125 C-11.13515625 50.89964844 -11.1609375 49.74851562 -11.1875 48.5625 C-11.20296875 47.40363281 -11.2184375 46.24476563 -11.234375 45.05078125 C-11.12360723 42.34585734 -11.12360723 42.34585734 -12.4375 41.25 C-20.69213291 40.67378374 -31.90581377 40.31210343 -38.4375 46.25 Z " fill="#020303" transform="translate(402.4375,454.75)"/>
<path d="M0 0 C1.84093895 1.57666791 3.38383841 3.18181822 5 5 C5.65226563 4.51789063 6.30453125 4.03578125 6.9765625 3.5390625 C16.025365 -3.00063252 23.79745167 -5.87055431 35 -4.375 C42.77567279 -2.86687203 47.7891439 -0.24659706 52.375 6.3125 C59.8640893 20.69111541 57.23392651 40.33513452 57.125 56 C57.11494769 58.52864228 57.10582583 61.05728844 57.09765625 63.5859375 C57.07582689 69.72404426 57.04252854 75.86200355 57 82 C53.88757514 82.64656 51.00937612 83.12753304 47.828125 83.1328125 C46.70857422 83.13474609 46.70857422 83.13474609 45.56640625 83.13671875 C44.41978516 83.13091797 44.41978516 83.13091797 43.25 83.125 C42.47011719 83.12886719 41.69023438 83.13273438 40.88671875 83.13671875 C35.12670133 83.12670133 35.12670133 83.12670133 34 82 C33.89242193 80.22163196 33.85374262 78.43905277 33.84228516 76.6574707 C33.83202301 75.51570877 33.82176086 74.37394684 33.81118774 73.19758606 C33.80388641 71.95289047 33.79658508 70.70819489 33.7890625 69.42578125 C33.76098688 66.81314485 33.73232237 64.20051473 33.703125 61.58789062 C33.66072382 57.45128779 33.62397556 53.31472248 33.59863281 49.17797852 C33.57359107 45.19786561 33.52513631 41.21817801 33.4765625 37.23828125 C33.47330963 36.00370682 33.47005676 34.76913239 33.46670532 33.49714661 C33.43719796 25.30280843 33.43719796 25.30280843 30 18 C26.47168799 15.68139497 23.07861651 15.66993613 18.93359375 16.328125 C15.31179037 17.58661022 14.03227622 19.79762535 12 23 C11.06423192 26.54416198 10.88209264 29.8536974 10.90234375 33.50878906 C10.90564697 34.58630432 10.9089502 35.66381958 10.91235352 36.77398682 C10.92480103 38.50234772 10.92480103 38.50234772 10.9375 40.265625 C10.94128662 41.45476501 10.94507324 42.64390503 10.94897461 43.86907959 C10.96118475 47.66275662 10.97982616 51.45635746 11 55.25 C11.02646923 60.2552061 11.04651015 65.26037572 11.0625 70.265625 C11.07494751 72.00613129 11.07494751 72.00613129 11.08764648 73.78179932 C11.09094971 74.84670593 11.09425293 75.91161255 11.09765625 77.00878906 C11.10289307 77.95079163 11.10812988 78.89279419 11.11352539 79.86334229 C11 82 11 82 10 83 C8.36527118 83.08700342 6.72685945 83.10701063 5.08984375 83.09765625 C4.10048828 83.09443359 3.11113281 83.09121094 2.09179688 83.08789062 C1.05087891 83.07951172 0.00996094 83.07113281 -1.0625 83.0625 C-2.10728516 83.05798828 -3.15207031 83.05347656 -4.22851562 83.04882812 C-6.8190666 83.03699913 -9.40950559 83.02051689 -12 83 C-12.94274687 79.03049043 -13.11590025 75.34830418 -13.09765625 71.2734375 C-13.09443359 69.9946875 -13.09121094 68.7159375 -13.08789062 67.3984375 C-13.07954528 66.05729093 -13.07108048 64.71614509 -13.0625 63.375 C-13.05747867 62.02604331 -13.05291687 60.67708483 -13.04882812 59.328125 C-13.04010192 56.85985426 -13.02932613 54.39158933 -13.01586914 51.92333984 C-13.00515112 49.94891523 -13 47.9744537 -13 46 C-12.97746217 44.58722494 -12.95392092 43.17446574 -12.9296875 41.76171875 C-12.91108606 40.07031655 -12.8928715 38.37891007 -12.875 36.6875 C-12.85824219 35.84509766 -12.84148438 35.00269531 -12.82421875 34.13476562 C-12.77869525 28.3123097 -13.11299774 23.49353869 -16.75 18.6875 C-19.64865952 16.51350536 -21.37323335 16.07111307 -25 16 C-28.85513021 17.17614142 -31.26089397 17.98637197 -33.66430664 21.2824707 C-38.86973588 31.87315483 -36.11061509 48.76397024 -36.0625 60.3125 C-36.05747421 62.42122289 -36.05291322 64.52994695 -36.04882812 66.63867188 C-36.03790973 71.75914371 -36.02070474 76.87955876 -36 82 C-40.65834623 82.70325108 -45.03751312 83.08849741 -49.75 83 C-53.24602586 82.93495766 -55.67395672 82.89131891 -59 84 C-59.8064556 79.05014676 -60.12636113 74.33906493 -60.12939453 69.30810547 C-60.13114685 68.57384338 -60.13289917 67.8395813 -60.13470459 67.08306885 C-60.13907372 64.67775039 -60.13620324 62.27250659 -60.1328125 59.8671875 C-60.13348681 58.18523138 -60.1344579 56.50327536 -60.13571167 54.82131958 C-60.13718183 51.3061632 -60.13505551 47.79103231 -60.13037109 44.27587891 C-60.12466541 39.77572546 -60.12796244 35.27563155 -60.13394356 30.77548027 C-60.13756009 27.30619866 -60.1364057 23.83693112 -60.13381577 20.36764908 C-60.13314998 18.70829384 -60.13396273 17.04893732 -60.13629532 15.38958359 C-60.13884073 13.07072315 -60.13495502 10.75195877 -60.12939453 8.43310547 C-60.12859894 7.11519012 -60.12780334 5.79727478 -60.12698364 4.43942261 C-60 1 -60 1 -59 -4 C-51.74 -4 -44.48 -4 -37 -4 C-36.67 -2.02 -36.34 -0.04 -36 2 C-35.18208984 1.49339844 -35.18208984 1.49339844 -34.34765625 0.9765625 C-23.25128737 -5.58641807 -11.24274284 -7.57825682 0 0 Z " fill="#020303" transform="translate(639,452)"/>
<path d="M0 0 C7.26 0 14.52 0 22 0 C23.12358449 13.34256584 23.10326002 26.61591257 23 40 C23.5880542 39.58427734 24.1761084 39.16855469 24.78198242 38.74023438 C32.80611776 33.20306373 39.25907994 31.26794581 49.0625 32.5625 C58.91812915 34.58972514 66.82081612 38.96440894 73 47 C80.95902768 59.98205849 82.91444798 72.88944749 79.75 87.8125 C76.6449034 99.69163105 70.45527657 108.91849413 59.8125 115.5 C49.47212385 121.16486657 37.8973915 122.64942419 26.4375 119.8125 C17.21046303 117.01445635 8.64829068 112.35401385 3.71484375 103.76171875 C0.34639478 96.57810895 -0.14745021 89.79098988 -0.11352539 81.96533203 C-0.11367142 81.07688095 -0.11381744 80.18842987 -0.1139679 79.27305603 C-0.11327406 76.35128291 -0.10550647 73.42957441 -0.09765625 70.5078125 C-0.09579019 68.47614578 -0.09436717 66.44447861 -0.09336853 64.41281128 C-0.08955815 59.07648467 -0.07974051 53.74018545 -0.06866455 48.40386963 C-0.05841861 42.95414602 -0.05386409 37.50441797 -0.04882812 32.0546875 C-0.03811689 21.36977772 -0.02053208 10.68489543 0 0 Z M25.3203125 57.1796875 C21.52231258 61.93420475 22.29581671 68.15257048 22.40307617 73.94042969 C22.43742536 75.99553448 22.42370896 78.04633828 22.40429688 80.1015625 C22.45631019 87.13376216 22.5220516 91.31068855 27 97 C31.2338814 100.31844759 35.64927878 101.35715052 41.015625 100.78515625 C45.90947587 99.80451819 49.7733311 97.90647154 53 94 C57.74006837 86.60973366 59.15609932 77.2577455 57.3125 68.6875 C55.11603006 62.51646541 52.68783037 57.65646238 47 54 C38.84092269 50.52805221 32.244149 51.54776218 25.3203125 57.1796875 Z " fill="#030303" transform="translate(255,415)"/>
<path d="M0 0 C7.59 0 15.18 0 23 0 C23.33 23.76 23.66 47.52 24 72 C26.04125467 70.19607555 26.04125467 70.19607555 26.8125 68.1875 C28.06455121 65.88108988 29.58109821 64.33572716 31.4609375 62.52734375 C37.33432882 56.69867368 42.53360869 50.20188961 47.7265625 43.7734375 C48.85191406 42.40058594 48.85191406 42.40058594 50 41 C50.40677979 40.38600342 50.81355957 39.77200684 51.23266602 39.1394043 C53.33387283 36.20563679 54.83682896 34.31542016 58.3984375 33.34960938 C61.18283302 33.08742907 63.89130337 33.02982966 66.6875 33.0625 C68.1115918 33.03833008 68.1115918 33.03833008 69.56445312 33.01367188 C72.04444361 32.97681427 74.51995865 32.97798862 77 33 C77.99 33 78.98 33 80 33 C80.99 33 81.98 33 83 33 C81.5436037 37.75756126 78.69427432 40.81105337 75.3125 44.3125 C74.21930723 45.46934867 73.12685543 46.626898 72.03515625 47.78515625 C71.50937988 48.33961426 70.98360352 48.89407227 70.44189453 49.46533203 C68.11401738 51.94298794 65.89221223 54.50788809 63.66796875 57.078125 C60.48104538 60.75017722 57.23488012 64.37021243 54 68 C55.28776672 71.53312344 56.80170539 74.35680601 59.01953125 77.38671875 C62.01827098 81.57687696 64.89032714 85.82636973 67.69921875 90.14453125 C68.30855759 91.07952957 68.30855759 91.07952957 68.9302063 92.03341675 C70.61094876 94.61468511 72.28877283 97.19783689 73.96508789 99.78198242 C75.20758087 101.69595134 76.453238 103.60783167 77.69921875 105.51953125 C78.07221603 106.09669388 78.44521332 106.67385651 78.82951355 107.26850891 C80.53208433 109.87808467 82.26992698 112.32331402 84.26879883 114.7175293 C86 117 86 117 86 120 C63.20333505 122.26325544 63.20333505 122.26325544 56.49365234 117.05419922 C52.44983047 112.31405233 49.60933216 106.95814325 47.10546875 101.27416992 C45.96543533 98.92889358 44.60859079 97.04467934 43 95 C42.29105249 93.80412412 41.60189261 92.59619128 40.9375 91.375 C39.22393217 88.04980214 39.22393217 88.04980214 37 86 C35.00842266 88.05165509 33.03216896 90.11498794 31.0625 92.1875 C30.49853516 92.76564453 29.93457031 93.34378906 29.35351562 93.93945312 C26.285356 97.19133488 24.27590518 99.37328244 24 104 C23.9071875 105.22074219 23.814375 106.44148437 23.71875 107.69921875 C23.608382 109.71146397 23.49813531 111.72372331 23.39453125 113.73632812 C23.10259948 118.79480104 23.10259948 118.79480104 22 121 C20.741875 120.855625 19.48375 120.71125 18.1875 120.5625 C12.79870505 119.96183814 7.40116209 119.47449461 2 119 C1.505 119.99 1.505 119.99 1 121 C-0.22409104 118.55181792 -0.1231358 116.9790144 -0.12025452 114.24179077 C-0.12162918 113.23775711 -0.12300385 112.23372345 -0.12442017 111.19926453 C-0.12082489 110.09371719 -0.11722961 108.98816986 -0.11352539 107.84912109 C-0.11367142 106.68815414 -0.11381744 105.52718719 -0.1139679 104.33103943 C-0.11326903 100.4784867 -0.10547781 96.62598182 -0.09765625 92.7734375 C-0.09579198 90.10828571 -0.09431895 87.44313659 -0.09336853 84.77798462 C-0.09025745 78.47045915 -0.08204706 72.16295096 -0.07201904 65.85543311 C-0.06085098 58.67535645 -0.0553457 51.49527898 -0.05032361 44.3151958 C-0.03986427 29.54345381 -0.02152155 14.77173039 0 0 Z " fill="#030404" transform="translate(789,415)"/>
<path d="M0 0 C0.92393555 0.00757324 1.84787109 0.01514648 2.79980469 0.02294922 C9.70697534 0.1897244 15.494341 1.0782348 21.625 4.4375 C22.4190625 4.85 23.213125 5.2625 24.03125 5.6875 C32.20978253 10.48557241 36.88450369 17.62578295 40.0625 26.4375 C41.625 33.4375 41.625 33.4375 41.625 51.4375 C21.825 51.7675 2.025 52.0975 -18.375 52.4375 C-14.39820459 60.39109082 -12.15762982 63.79111592 -4.15234375 66.546875 C-0.13663891 67.49370096 3.64632213 67.82146103 7.75 67.8125 C8.85661987 67.81117065 8.85661987 67.81117065 9.9855957 67.80981445 C19.33224848 67.6109495 27.37836696 64.70131471 35.625 60.4375 C35.67920701 63.00028699 35.71877007 65.56191483 35.75 68.125 C35.76675781 68.84623047 35.78351563 69.56746094 35.80078125 70.31054688 C35.83855586 74.44686666 35.82959336 77.87124604 33.625 81.4375 C21.66246159 88.97740613 6.1508446 89.82078688 -7.375 87.25 C-19.76818866 84.34975217 -29.84636641 78.45059121 -36.75 67.5 C-41.30104566 59.74193093 -42.93824975 52.1065363 -42.875 43.1875 C-42.87072998 42.2701709 -42.86645996 41.3528418 -42.86206055 40.40771484 C-42.59669545 29.74997744 -39.40593725 20.60858923 -32.375 12.4375 C-31.715 12.4375 -31.055 12.4375 -30.375 12.4375 C-30.375 11.7775 -30.375 11.1175 -30.375 10.4375 C-28.28515625 8.81640625 -28.28515625 8.81640625 -25.4375 7 C-24.06271484 6.10474609 -24.06271484 6.10474609 -22.66015625 5.19140625 C-15.18455303 1.20026969 -8.43700037 -0.09703012 0 0 Z M-15.125 23.5625 C-18.06212746 27.3154962 -18.69722759 30.79425319 -19.375 35.4375 C-18.385 35.1075 -17.395 34.7775 -16.375 34.4375 C-14.70545765 34.7561177 -13.03920417 35.09208234 -11.375 35.4375 C-9.09882931 35.51750751 -6.82052304 35.54518953 -4.54296875 35.53515625 C-3.25068359 35.53193359 -1.95839844 35.52871094 -0.62695312 35.52539062 C0.72786526 35.51703665 2.08268297 35.50857172 3.4375 35.5 C4.81184735 35.49498 6.18619645 35.49041797 7.56054688 35.48632812 C10.91540924 35.47455668 14.27018221 35.45811283 17.625 35.4375 C18.54686945 31.86370404 18.54686945 31.86370404 17.875 28.33984375 C14.95337293 23.74741119 12.06818071 19.95852941 6.625 18.4375 C-2.12673652 17.48693686 -8.10012283 18.13418583 -15.125 23.5625 Z " fill="#030304" transform="translate(910.375,447.5625)"/>
<path d="M0 0 C1.10472656 -0.00128906 2.20945312 -0.00257813 3.34765625 -0.00390625 C5.07822266 0.00189453 5.07822266 0.00189453 6.84375 0.0078125 C7.99746094 0.00394531 9.15117188 0.00007813 10.33984375 -0.00390625 C11.99693359 -0.00197266 11.99693359 -0.00197266 13.6875 0 C15.20633789 0.00169189 15.20633789 0.00169189 16.75585938 0.00341797 C20.86920513 0.20908526 22.57092435 1.31890795 25.34375 4.1328125 C26.76667726 5.05161696 28.20560882 5.94591911 29.65625 6.8203125 C38.51379218 12.67261716 42.82522167 21.29943501 45.09375 31.5078125 C45.55048103 38.13041242 45.96102131 44.66372725 44.34375 51.1328125 C24.87375 51.4628125 5.40375 51.7928125 -14.65625 52.1328125 C-10.6138137 60.21768509 -8.7108781 63.13778451 -0.68774414 66.4934082 C2.9941353 67.65226438 6.63693948 67.61801139 10.46875 67.5703125 C11.71410522 67.56221558 11.71410522 67.56221558 12.98461914 67.55395508 C21.93864762 67.33509997 30.11320107 65.6788819 37.34375 60.1328125 C38.00375 60.1328125 38.66375 60.1328125 39.34375 60.1328125 C39.39223646 63.13897292 39.38364262 66.12756847 39.34375 69.1328125 C39.36308594 70.00679687 39.38242187 70.88078125 39.40234375 71.78125 C39.25928178 78.13320127 39.25928178 78.13320127 36.8125 80.8046875 C32.55942718 83.67382392 28.1601009 84.89046613 23.12890625 85.67578125 C22.53980469 85.82660156 21.95070313 85.97742188 21.34375 86.1328125 C21.01375 86.7928125 20.68375 87.4528125 20.34375 88.1328125 C2.94499428 88.50387601 -13.58193022 87.85389871 -27.15625 75.4453125 C-36.3008606 65.31952051 -39.218367 53.09223335 -38.9609375 39.8203125 C-37.95296926 27.62131229 -33.55322972 17.76665444 -24.7109375 9.26171875 C-17.8404126 3.68463275 -8.83590086 0.00984266 0 0 Z M-11.40625 23.8203125 C-14.26661641 27.62224127 -14.26661641 27.62224127 -15.65625 35.1328125 C-3.11625 35.1328125 9.42375 35.1328125 22.34375 35.1328125 C21.26160359 27.55778766 20.26103815 24.49147101 14.40625 19.7578125 C5.78284395 15.29678643 -4.72833885 17.29417206 -11.40625 23.8203125 Z " fill="#030303" transform="translate(528.65625,447.8671875)"/>
<path d="M0 0 C7.04072912 6.38614886 8.8560955 13.81422438 10 23 C10.09767289 25.56521622 10.15386011 28.13223731 10.17578125 30.69921875 C10.19899158 32.17123807 10.2231094 33.6432433 10.24804688 35.11523438 C10.28294798 37.39454469 10.31241605 39.67333732 10.32592773 41.95288086 C10.39537494 51.79194766 11.30354104 59.71089456 15 69 C9.06 72.63 3.12 76.26 -3 80 C-7 75 -7 75 -8 73 C-10.91816502 73.4669064 -12.60813907 74.36965316 -15.1875 75.9375 C-24.05474865 81.14795594 -34.39019121 80.75255951 -44.1875 78.8203125 C-53.21804236 76.18640431 -59.05202936 70.87939968 -63.8125 63 C-66.3898186 56.34933304 -66.39191219 47.17937227 -63.5625 40.625 C-59.56970497 34.08750109 -53.28359916 28.54477258 -45.8359375 26.51953125 C-34.9846452 24.53162233 -24.02978534 23.61071346 -13 24 C-13.47317626 20.34488481 -14.18107405 17.22729433 -16 14 C-23.56769068 9.741613 -33.28206968 10.20852788 -41.48828125 12.15625 C-45.70997425 13.5744237 -49.57493572 15.66452507 -53.49609375 17.7578125 C-56 19 -56 19 -58 19 C-58.70194375 16.94237091 -59.38601697 14.87863969 -60.0625 12.8125 C-60.44535156 11.66394531 -60.82820312 10.51539063 -61.22265625 9.33203125 C-62.02216937 5.90497251 -62.38762264 4.22321794 -61 1 C-44.66650025 -11.29323737 -16.38945031 -12.97057573 0 0 Z M-40.75 45.25 C-42.37660061 48.82852134 -42.55609468 51.10733721 -42 55 C-39.86320715 58.38939556 -38.8225233 59.72582557 -35 61 C-27.84487443 61.50279261 -21.20400147 61.91121832 -15 58 C-11.91425964 54.5160996 -11.68898295 51.52203807 -11.796875 47.0625 C-12.03298502 44.6650752 -12.49328561 42.35377007 -13 40 C-27.73939288 39.308782 -27.73939288 39.308782 -40.75 45.25 Z " fill="#020303" transform="translate(768,456)"/>
<path d="M0 0 C0.33 0 0.66 0 1 0 C1.65427444 7.85129334 -1.23621423 13.01011606 -6 19.125 C-13.01608027 26.85794065 -23.01682789 30.03455033 -33.125 30.5625 C-33.88820557 30.6042334 -34.65141113 30.6459668 -35.43774414 30.68896484 C-50.09274434 31.45362783 -50.09274434 31.45362783 -53 30 C-53 35.94 -53 41.88 -53 48 C-44.75 48 -36.5 48 -28 48 C-28.33 48.66 -28.66 49.32 -29 50 C-37.58 50 -46.16 50 -55 50 C-55.020625 46.74125 -55.04125 43.4825 -55.0625 40.125 C-55.071604 39.09906738 -55.08070801 38.07313477 -55.09008789 37.01611328 C-55.09258545 36.20899902 -55.09508301 35.40188477 -55.09765625 34.5703125 C-55.10289307 33.74289551 -55.10812988 32.91547852 -55.11352539 32.06298828 C-55 30 -55 30 -54 28 C-53.38592285 27.98018066 -52.7718457 27.96036133 -52.13916016 27.93994141 C-49.30074617 27.84346198 -46.46294843 27.73429198 -43.625 27.625 C-42.65949219 27.5940625 -41.69398438 27.563125 -40.69921875 27.53125 C-28.79283527 27.05179832 -15.94324337 25.31065071 -7.3828125 16.08984375 C-4.1293346 11.17286443 -2.11688365 5.47987612 0 0 Z " fill="#FC0A11" transform="translate(175,486)"/>
<path d="M0 0 C0.33 0 0.66 0 1 0 C1.33 7.59 1.66 15.18 2 23 C6.95 23.33 11.9 23.66 17 24 C17 18.72 17 13.44 17 8 C17.66 7.67 18.32 7.34 19 7 C19 12.94 19 18.88 19 25 C13.85323954 27.57338023 9.96694085 27.06667596 4.3125 26.875 C1.17227061 26.99349922 -0.39679733 27.33395029 -3 29 C-2.505 27.515 -2.505 27.515 -2 26 C-1.86214417 24.09382344 -1.77519199 22.18375883 -1.71875 20.2734375 C-1.68136719 19.1596875 -1.64398438 18.0459375 -1.60546875 16.8984375 C-1.5349226 14.54167365 -1.46461165 12.18490275 -1.39453125 9.828125 C-1.35714844 8.71695312 -1.31976563 7.60578125 -1.28125 6.4609375 C-1.25095703 5.43790527 -1.22066406 4.41487305 -1.18945312 3.36083984 C-1 1 -1 1 0 0 Z " fill="#FA0A13" transform="translate(85,473)"/>
<path d="M0 0 C0.75039551 -0.0093457 1.50079102 -0.01869141 2.27392578 -0.02832031 C3.20579712 -0.04064697 3.20579712 -0.04064697 4.15649414 -0.05322266 C7.59823611 0.11427127 11.0148759 0.63021642 14.43408203 1.05761719 C14.43408203 13.92761719 14.43408203 26.79761719 14.43408203 40.05761719 C14.10408203 40.05761719 13.77408203 40.05761719 13.43408203 40.05761719 C13.43408203 27.84761719 13.43408203 15.63761719 13.43408203 3.05761719 C-1.08591797 3.05761719 -15.60591797 3.05761719 -30.56591797 3.05761719 C-27.94153535 0.43323457 -26.66163139 0.75619974 -22.99951172 0.64355469 C-21.87351563 0.60488281 -20.74751953 0.56621094 -19.58740234 0.52636719 C-18.4046875 0.49542969 -17.22197266 0.46449219 -16.00341797 0.43261719 C-14.84777344 0.39394531 -13.69212891 0.35527344 -12.50146484 0.31542969 C-8.3347354 0.18292722 -4.16772164 0.09358538 0 0 Z " fill="#FD070A" transform="translate(162.56591796875,442.9423828125)"/>
<path d="M0 0 C1.14004486 0.02502594 2.28008972 0.05005188 3.4546814 0.07583618 C7.06126647 0.15737012 10.66724815 0.25421515 14.2734375 0.3515625 C16.73304904 0.40987016 19.19268465 0.46717186 21.65234375 0.5234375 C27.65136902 0.66284889 33.64997551 0.81479997 39.6484375 0.9765625 C36.91537721 3.70962279 35.3737709 3.25038211 31.54638672 3.29541016 C30.26520966 3.31527985 28.98403259 3.33514954 27.66403198 3.35562134 C26.26039808 3.36749867 24.85676234 3.37916148 23.453125 3.390625 C22.02107619 3.40932942 20.58903848 3.42890228 19.15701294 3.4493103 C15.38578833 3.50071456 11.61452795 3.54029561 7.84313965 3.57745361 C3.99559624 3.6174415 0.14820267 3.66855754 -3.69921875 3.71875 C-11.24989733 3.81560737 -18.80064818 3.89998045 -26.3515625 3.9765625 C-18.12564799 -0.4689193 -9.11723768 -0.27034019 0 0 Z " fill="#FD0810" transform="translate(154.3515625,425.0234375)"/>
<path d="M0 0 C0.54140625 0.24363281 1.0828125 0.48726563 1.640625 0.73828125 C0.83238281 1.32996094 0.02414063 1.92164063 -0.80859375 2.53125 C-1.88818322 3.32920743 -2.96760116 4.12739697 -4.046875 4.92578125 C-5.10261719 5.70308594 -6.15835938 6.48039062 -7.24609375 7.28125 C-15.89557471 14.10750285 -22.2019634 23.0681345 -27.359375 32.73828125 C-28.05078125 31.1015625 -28.05078125 31.1015625 -28.359375 28.73828125 C-25.24787108 21.69017812 -20.732846 15.23671669 -15.359375 9.73828125 C-14.699375 9.73828125 -14.039375 9.73828125 -13.359375 9.73828125 C-13.359375 9.07828125 -13.359375 8.41828125 -13.359375 7.73828125 C-11.09375 5.7578125 -11.09375 5.7578125 -8.109375 3.55078125 C-7.13484375 2.81472656 -6.1603125 2.07867187 -5.15625 1.3203125 C-2.359375 -0.26171875 -2.359375 -0.26171875 0 0 Z " fill="#FC0B11" transform="translate(100.359375,419.26171875)"/>
<path d="M0 0 C-1.38851705 3.26336748 -2.89295258 4.91580443 -5.6875 7.0625 C-14.02497285 14.16143521 -18.19438579 23.951074 -22 34 C-22.66 34 -23.32 34 -24 34 C-22.97950191 26.70420025 -20.90571179 21.22020766 -17 15 C-16.46375 14.01 -15.9275 13.02 -15.375 12 C-12.13265266 7.90440336 -5.53767357 0 0 0 Z " fill="#FD0B10" transform="translate(109,435)"/>
<path d="M0 0 C0.64038086 1.81103516 0.64038086 1.81103516 1 4 C-0.73883077 6.34061741 -2.41626387 8.30453053 -4.4375 10.375 C-4.98720459 10.95354736 -5.53690918 11.53209473 -6.10327148 12.12817383 C-10.07584439 16.23663068 -14.19380717 19.88466055 -19 23 C-19.99 23.66 -20.98 24.32 -22 25 C-24.6875 25.125 -24.6875 25.125 -27 25 C-24.91477651 21.87216476 -24.22575364 21.45245216 -21 19.9375 C-14.8952152 16.70672103 -8.13790145 11.2758029 -5 5 C-4.34 5 -3.68 5 -3 5 C-2.690625 4.360625 -2.38125 3.72125 -2.0625 3.0625 C-1 1 -1 1 0 0 Z " fill="#FA0C12" transform="translate(200,519)"/>
<path d="M0 0 C-0.66386719 0.37511719 -1.32773438 0.75023437 -2.01171875 1.13671875 C-10.93409493 6.30778932 -17.86146443 12.05614946 -20.98046875 22.18359375 C-21.71543488 25.11310665 -22.3934968 28.04144779 -23 31 C-23.33 31 -23.66 31 -24 31 C-24.10016902 21.06895746 -23.00651231 14.30180594 -16 7 C-13.46978076 4.74255533 -10.8940282 2.76625226 -8 1 C-7.34386719 0.5978125 -6.68773438 0.195625 -6.01171875 -0.21875 C-3.58182524 -1.16239796 -2.41441236 -0.86229013 0 0 Z " fill="#FC0A11" transform="translate(127,448)"/>
<path d="M0 0 C0.66 0 1.32 0 2 0 C1.59733973 4.96004243 -0.95222191 7.67223495 -4.25 11.125 C-4.72824219 11.64964844 -5.20648438 12.17429687 -5.69921875 12.71484375 C-8.52607773 15.7408852 -11.23916166 18.2233281 -15 20 C-15.66 19.67 -16.32 19.34 -17 19 C-16.34 18.34 -15.68 17.68 -15 17 C-14.32130859 16.31744141 -14.32130859 16.31744141 -13.62890625 15.62109375 C-12.43848357 14.43638053 -11.23626481 13.26348705 -10.02734375 12.09765625 C-5.43309309 7.62759865 -5.43309309 7.62759865 -1.625 2.5 C-0.820625 1.2625 -0.820625 1.2625 0 0 Z " fill="#FC0B12" transform="translate(186,507)"/>
<path d="M0 0 C0 0.66 0 1.32 0 2 C-12.52631579 8.71052632 -12.52631579 8.71052632 -18.234375 7.54296875 C-18.81703125 7.36378906 -19.3996875 7.18460938 -20 7 C-16.01302946 4.22120235 -12.76439174 3.64136043 -8 3 C-7.67 2.34 -7.34 1.68 -7 1 C-4.51587793 0.17195931 -2.64779693 0 0 0 Z " fill="#FB0B12" transform="translate(168,527)"/>
<path d="M0 0 C6.6 0 13.2 0 20 0 C20.33 0.66 20.66 1.32 21 2 C17.27516777 2.85060625 13.75681825 3.19205838 9.9375 3.25 C8.40416016 3.28867187 8.40416016 3.28867187 6.83984375 3.328125 C4 3 4 3 0 0 Z " fill="#FC0C14" transform="translate(72,514)"/>
<path d="M0 0 C-2.42809838 2.93927699 -4.24223946 3.57298176 -8 4 C-11.625 4.25 -11.625 4.25 -15 4 C-16.7109375 2.484375 -16.7109375 2.484375 -18 1 C-15.37583048 0.63835477 -12.75099687 0.28538847 -10.125 -0.0625 C-9.37863281 -0.16626953 -8.63226563 -0.27003906 -7.86328125 -0.37695312 C-2.2265625 -1.11328125 -2.2265625 -1.11328125 0 0 Z " fill="#FB0B14" transform="translate(163,548)"/>
<path d="M0 0 C-3.72636611 4.1314059 -8.50047322 5.84377958 -14 6.1875 C-14.66 6.125625 -15.32 6.06375 -16 6 C-16 5.34 -16 4.68 -16 4 C-10.45108785 1.18150494 -6.258654 -0.5326514 0 0 Z " fill="#FC0B11" transform="translate(127,428)"/>
<path d="M0 0 C0.98484375 0.00902344 1.9696875 0.01804687 2.984375 0.02734375 C4.10585937 0.04474609 4.10585937 0.04474609 5.25 0.0625 C2.13022629 2.14234914 -0.20013819 2.85020149 -3.8125 3.75 C-4.87597656 4.02199219 -5.93945312 4.29398437 -7.03515625 4.57421875 C-9.75 5.0625 -9.75 5.0625 -11.75 4.0625 C-9.75 1.0625 -9.75 1.0625 -7.984375 0.37890625 C-5.29618167 -0.00176448 -2.71455569 -0.03231614 0 0 Z " fill="#FB0C14" transform="translate(122.75,410.9375)"/>
<path d="M0 0 C0.66 0 1.32 0 2 0 C1.855625 0.71671875 1.71125 1.4334375 1.5625 2.171875 C0.05266475 9.76299112 -1.24205899 17.29426645 -2 25 C-2.33 25 -2.66 25 -3 25 C-3.29414739 16.84558069 -2.67552772 8.9985046 -1 1 C-0.67 0.67 -0.34 0.34 0 0 Z " fill="#FD080D" transform="translate(70,454)"/>
<path d="M0 0 C0.33 0 0.66 0 1 0 C1.50610724 6.07328688 0.04157942 9.77228537 -3 15 C-3.99 14.67 -4.98 14.34 -6 14 C-4.02 9.38 -2.04 4.76 0 0 Z " fill="#F90B11" transform="translate(207,503)"/>
<path d="M0 0 C1.02802734 0.04833984 2.05605469 0.09667969 3.11523438 0.14648438 C4.72301758 0.2305957 4.72301758 0.2305957 6.36328125 0.31640625 C7.44673828 0.36861328 8.53019531 0.42082031 9.64648438 0.47460938 C12.32320716 0.60431841 14.99956013 0.73928558 17.67578125 0.87890625 C17.67578125 1.20890625 17.67578125 1.53890625 17.67578125 1.87890625 C4.31078125 2.37390625 4.31078125 2.37390625 -9.32421875 2.87890625 C-7.40577296 -0.95798534 -3.76922241 -0.1874199 0 0 Z " fill="#FD0308" transform="translate(140.32421875,461.12109375)"/>
<path d="M0 0 C0.33 0.66 0.66 1.32 1 2 C-1.22222392 6.08889201 -2.29408826 7.7411657 -6.75 9.375 C-7.8225 9.58125 -8.895 9.7875 -10 10 C-9 8 -9 8 -7.125 7.1875 C-4.35914232 5.64187365 -3.53441157 3.72009324 -2 1 C-1.34 0.67 -0.68 0.34 0 0 Z " fill="#FC070F" transform="translate(156,488)"/>
<path d="M0 0 C0.99 0 1.98 0 3 0 C2.53199289 4.05606165 2.12046792 7.46588679 0 11 C-1.05404945 7.01803543 -0.84098656 4.01804691 0 0 Z " fill="#F6141B" transform="translate(208,496)"/>
<path d="M0 0 C0 0.66 0 1.32 0 2 C-1.8125 3.0625 -1.8125 3.0625 -4 4 C-4.99 3.67 -5.98 3.34 -7 3 C-4.49955934 -0.00052879 -4.2621484 0 0 0 Z " fill="#FC090F" transform="translate(110,415)"/>
<path d="M0 0 C0.33 0 0.66 0 1 0 C1 2.31 1 4.62 1 7 C0.67 7 0.34 7 0 7 C0 4.69 0 2.38 0 0 Z " fill="#F32436" transform="translate(64,489)"/>
<path d="M0 0 C0.33 0 0.66 0 1 0 C1 1.98 1 3.96 1 6 C0.67 6 0.34 6 0 6 C0 4.02 0 2.04 0 0 Z " fill="#F82334" transform="translate(87,482)"/>
<path d="M0 0 C0.33 0 0.66 0 1 0 C1 1.65 1 3.3 1 5 C0.67 5 0.34 5 0 5 C0 3.35 0 1.7 0 0 Z " fill="#F2283B" transform="translate(64,464)"/>
<path d="M0 0 C0.33 0.99 0.66 1.98 1 3 C0.01 3.495 0.01 3.495 -1 4 C-0.67 2.68 -0.34 1.36 0 0 Z " fill="#F72234" transform="translate(95,452)"/>
<path d="M0 0 C1.65 0 3.3 0 5 0 C5 0.33 5 0.66 5 1 C3.35 1 1.7 1 0 1 C0 0.67 0 0.34 0 0 Z " fill="#F92232" transform="translate(152,430)"/>
<path d="M0 0 C1 4 1 4 1 4 Z " fill="#F82235" transform="translate(87,492)"/>
<path d="M0 0 C3 1 3 1 3 1 Z " fill="#F92435" transform="translate(126,531)"/>
<path d="" fill="#161818" transform="translate(0,0)"/>
<path d="M0 0 C0.99 0.495 0.99 0.495 2 1 C1.01 1.495 1.01 1.495 0 2 C0 1.34 0 0.68 0 0 Z " fill="#F82033" transform="translate(152,488)"/>
<path d="" fill="#191A19" transform="translate(0,0)"/>
<path d="M0 0 C0.99 0.495 0.99 0.495 2 1 C1.01 1.495 1.01 1.495 0 2 C0 1.34 0 0.68 0 0 Z " fill="#242321" transform="translate(604,451)"/>
<path d="M0 0 C3 1 3 1 3 1 Z " fill="#212222" transform="translate(755,448)"/>
<path d="M0 0 C3 1 3 1 3 1 Z " fill="#F72131" transform="translate(176,430)"/>
<path d="M0 0 C2 1 2 1 2 1 Z " fill="#212121" transform="translate(382,535)"/>
<path d="" fill="#E62637" transform="translate(0,0)"/>
<path d="M0 0 C2 1 2 1 2 1 Z " fill="#F72335" transform="translate(143,531)"/>
<path d="M0 0 C2 1 2 1 2 1 Z " fill="#F82336" transform="translate(138,531)"/>
<path d="M0 0 C2 1 2 1 2 1 Z " fill="#F92233" transform="translate(129,518)"/>
<path d="M0 0 C2 1 2 1 2 1 Z " fill="#F92231" transform="translate(98,518)"/>
<path d="M0 0 C2 1 2 1 2 1 Z " fill="#F92134" transform="translate(145,517)"/>
<path d="M0 0 C2 1 2 1 2 1 Z " fill="#1A1A1B" transform="translate(624,512)"/>
<path d="M0 0 C2 1 2 1 2 1 Z " fill="#1C1C1D" transform="translate(554,512)"/>
<path d="M0 0 C2 1 2 1 2 1 Z " fill="#F92435" transform="translate(179,512)"/>
<path d="" fill="#181717" transform="translate(0,0)"/>
<path d="M0 0 C2 1 2 1 2 1 Z " fill="#1A1A19" transform="translate(917,500)"/>
<path d="M0 0 C2 1 2 1 2 1 Z " fill="#1A1919" transform="translate(542,500)"/>
<path d="M0 0 C2 1 2 1 2 1 Z " fill="#191918" transform="translate(537,500)"/>
<path d="" fill="#1C1A18" transform="translate(0,0)"/>
<path d="M0 0 C2 1 2 1 2 1 Z " fill="#191818" transform="translate(373,498)"/>
<path d="" fill="#1A1B19" transform="translate(0,0)"/>
<path d="" fill="#F32334" transform="translate(0,0)"/>
<path d="" fill="#171916" transform="translate(0,0)"/>
<path d="M0 0 C2 1 2 1 2 1 Z " fill="#191A19" transform="translate(540,481)"/>
<path d="" fill="#19191A" transform="translate(0,0)"/>
<path d="M0 0 C2 1 2 1 2 1 Z " fill="#1C1D1C" transform="translate(894,480)"/>
<path d="" fill="#1C1C1B" transform="translate(0,0)"/>
<path d="" fill="#18191A" transform="translate(0,0)"/>
<path d="" fill="#F91F31" transform="translate(0,0)"/>
<path d="M0 0 C2 1 2 1 2 1 Z " fill="#1D1C1E" transform="translate(902,468)"/>
<path d="M0 0 C2 1 2 1 2 1 Z " fill="#1D1D1C" transform="translate(913,467)"/>
<path d="M0 0 C2 1 2 1 2 1 Z " fill="#1B1C1B" transform="translate(907,467)"/>
<path d="M0 0 C2 1 2 1 2 1 Z " fill="#1B1B1A" transform="translate(534,467)"/>
<path d="" fill="#1F1E1F" transform="translate(0,0)"/>
<path d="M0 0 C2 1 2 1 2 1 Z " fill="#232124" transform="translate(720,448)"/>
<path d="M0 0 C2 1 2 1 2 1 Z " fill="#F72535" transform="translate(126,431)"/>
<path d="M0 0 C2 1 2 1 2 1 Z " fill="#F72332" transform="translate(185,430)"/>
<path d="M0 0 C2 1 2 1 2 1 Z " fill="#F82231" transform="translate(171,430)"/>
<path d="M0 0 C2 1 2 1 2 1 Z " fill="#FA2232" transform="translate(161,430)"/>
<path d="M0 0 C2 1 2 1 2 1 Z " fill="#F92132" transform="translate(148,430)"/>
<path d="M0 0 C2 1 2 1 2 1 Z " fill="#F92132" transform="translate(145,430)"/>
<path d="M0 0 C2 1 2 1 2 1 Z " fill="#F92233" transform="translate(137,430)"/>
<path d="" fill="#909190" transform="translate(0,0)"/>
<path d="" fill="#EF2B3B" transform="translate(0,0)"/>
<path d="" fill="#E92E3C" transform="translate(0,0)"/>
<path d="" fill="#EC2B3B" transform="translate(0,0)"/>
<path d="" fill="#E8283A" transform="translate(0,0)"/>
<path d="" fill="#242223" transform="translate(0,0)"/>
<path d="" fill="#232224" transform="translate(0,0)"/>
<path d="" fill="#1F2223" transform="translate(0,0)"/>
<path d="" fill="#252726" transform="translate(0,0)"/>
<path d="" fill="#252323" transform="translate(0,0)"/>
<path d="" fill="#452D2F" transform="translate(0,0)"/>
<path d="" fill="#1F1E1F" transform="translate(0,0)"/>
<path d="" fill="#3D292B" transform="translate(0,0)"/>
<path d="" fill="#41292C" transform="translate(0,0)"/>
<path d="" fill="#292B29" transform="translate(0,0)"/>
<path d="" fill="#212121" transform="translate(0,0)"/>
<path d="" fill="#1D1D1D" transform="translate(0,0)"/>
<path d="" fill="#201F20" transform="translate(0,0)"/>
<path d="" fill="#F92333" transform="translate(0,0)"/>
<path d="" fill="#FA2434" transform="translate(0,0)"/>
<path d="" fill="#F92436" transform="translate(0,0)"/>
<path d="" fill="#F82135" transform="translate(0,0)"/>
<path d="" fill="#23211E" transform="translate(0,0)"/>
<path d="" fill="#FC2435" transform="translate(0,0)"/>
<path d="" fill="#1F2020" transform="translate(0,0)"/>
<path d="" fill="#211F1F" transform="translate(0,0)"/>
<path d="" fill="#201F1F" transform="translate(0,0)"/>
<path d="" fill="#1D1B1C" transform="translate(0,0)"/>
<path d="" fill="#1E1E1C" transform="translate(0,0)"/>
<path d="" fill="#1E1E1F" transform="translate(0,0)"/>
<path d="" fill="#E52839" transform="translate(0,0)"/>
<path d="" fill="#1C1C1C" transform="translate(0,0)"/>
<path d="" fill="#1B1A19" transform="translate(0,0)"/>
<path d="" fill="#F52234" transform="translate(0,0)"/>
<path d="" fill="#1B1D1C" transform="translate(0,0)"/>
<path d="" fill="#1D1A1C" transform="translate(0,0)"/>
<path d="" fill="#F52334" transform="translate(0,0)"/>
<path d="" fill="#1A1A1B" transform="translate(0,0)"/>
<path d="" fill="#1B1A19" transform="translate(0,0)"/>
<path d="" fill="#F72232" transform="translate(0,0)"/>
<path d="" fill="#1C1D1B" transform="translate(0,0)"/>
<path d="" fill="#1D1C1D" transform="translate(0,0)"/>
<path d="" fill="#191A1B" transform="translate(0,0)"/>
<path d="" fill="#1A1A1A" transform="translate(0,0)"/>
<path d="" fill="#1E1D1E" transform="translate(0,0)"/>
<path d="" fill="#1E1E1E" transform="translate(0,0)"/>
<path d="" fill="#1C1C1C" transform="translate(0,0)"/>
<path d="" fill="#1A1A1A" transform="translate(0,0)"/>
<path d="" fill="#1C1B1B" transform="translate(0,0)"/>
<path d="" fill="#1C1C1A" transform="translate(0,0)"/>
<path d="" fill="#1E1F20" transform="translate(0,0)"/>
<path d="" fill="#1A1B1B" transform="translate(0,0)"/>
<path d="" fill="#1B1D1D" transform="translate(0,0)"/>
<path d="" fill="#191C1B" transform="translate(0,0)"/>
<path d="" fill="#1D1C1C" transform="translate(0,0)"/>
<path d="" fill="#181518" transform="translate(0,0)"/>
<path d="" fill="#1D1D1B" transform="translate(0,0)"/>
<path d="" fill="#191919" transform="translate(0,0)"/>
<path d="" fill="#19191B" transform="translate(0,0)"/>
<path d="" fill="#1A1B19" transform="translate(0,0)"/>
<path d="" fill="#171817" transform="translate(0,0)"/>
<path d="" fill="#F42439" transform="translate(0,0)"/>
<path d="" fill="#1A1C1A" transform="translate(0,0)"/>
<path d="" fill="#1C1919" transform="translate(0,0)"/>
<path d="" fill="#1F1E1D" transform="translate(0,0)"/>
<path d="" fill="#1A1C1C" transform="translate(0,0)"/>
<path d="" fill="#1A1A19" transform="translate(0,0)"/>
<path d="" fill="#1A1C19" transform="translate(0,0)"/>
<path d="" fill="#1B1E1C" transform="translate(0,0)"/>
<path d="" fill="#1D1C1C" transform="translate(0,0)"/>
<path d="" fill="#1A1A1A" transform="translate(0,0)"/>
<path d="" fill="#1A1A18" transform="translate(0,0)"/>
<path d="" fill="#181A17" transform="translate(0,0)"/>
<path d="" fill="#1A1818" transform="translate(0,0)"/>
<path d="" fill="#1A1B18" transform="translate(0,0)"/>
<path d="" fill="#19181A" transform="translate(0,0)"/>
<path d="" fill="#F52637" transform="translate(0,0)"/>
<path d="" fill="#F52437" transform="translate(0,0)"/>
<path d="" fill="#1B191A" transform="translate(0,0)"/>
<path d="" fill="#171917" transform="translate(0,0)"/>
<path d="" fill="#181817" transform="translate(0,0)"/>
<path d="" fill="#FA2235" transform="translate(0,0)"/>
<path d="" fill="#181919" transform="translate(0,0)"/>
<path d="" fill="#1B1918" transform="translate(0,0)"/>
<path d="" fill="#1C1B19" transform="translate(0,0)"/>
<path d="" fill="#1A1819" transform="translate(0,0)"/>
<path d="" fill="#1A1A1A" transform="translate(0,0)"/>
<path d="" fill="#F32435" transform="translate(0,0)"/>
<path d="" fill="#1C1D1A" transform="translate(0,0)"/>
<path d="" fill="#1C1D1A" transform="translate(0,0)"/>
<path d="" fill="#1D1C1B" transform="translate(0,0)"/>
<path d="" fill="#171918" transform="translate(0,0)"/>
<path d="" fill="#1D1D1C" transform="translate(0,0)"/>
<path d="" fill="#191B18" transform="translate(0,0)"/>
<path d="" fill="#1B1B1A" transform="translate(0,0)"/>
<path d="" fill="#1A1B1A" transform="translate(0,0)"/>
<path d="" fill="#1A1B1A" transform="translate(0,0)"/>
<path d="" fill="#F32536" transform="translate(0,0)"/>
<path d="" fill="#191B1C" transform="translate(0,0)"/>
<path d="" fill="#19191A" transform="translate(0,0)"/>
<path d="" fill="#1A1A1B" transform="translate(0,0)"/>
<path d="" fill="#1D1C1E" transform="translate(0,0)"/>
<path d="" fill="#1A1B18" transform="translate(0,0)"/>
<path d="" fill="#F32537" transform="translate(0,0)"/>
<path d="" fill="#FB2233" transform="translate(0,0)"/>
<path d="" fill="#F82435" transform="translate(0,0)"/>
<path d="" fill="#F32537" transform="translate(0,0)"/>
<path d="" fill="#1A191A" transform="translate(0,0)"/>
<path d="" fill="#1D1B1A" transform="translate(0,0)"/>
<path d="" fill="#1A1919" transform="translate(0,0)"/>
<path d="" fill="#1C1B1A" transform="translate(0,0)"/>
<path d="" fill="#1B1B1C" transform="translate(0,0)"/>
<path d="" fill="#1A1A19" transform="translate(0,0)"/>
<path d="" fill="#1A1B1B" transform="translate(0,0)"/>
<path d="" fill="#1B1C1C" transform="translate(0,0)"/>
<path d="" fill="#1A1A1A" transform="translate(0,0)"/>
<path d="" fill="#1D1D1B" transform="translate(0,0)"/>
<path d="" fill="#1A1918" transform="translate(0,0)"/>
<path d="" fill="#1B1B1C" transform="translate(0,0)"/>
<path d="" fill="#1E1F1E" transform="translate(0,0)"/>
<path d="" fill="#1D1D1C" transform="translate(0,0)"/>
<path d="" fill="#1A1A1B" transform="translate(0,0)"/>
<path d="" fill="#191A1B" transform="translate(0,0)"/>
<path d="" fill="#1E1C1C" transform="translate(0,0)"/>
<path d="" fill="#1D1C1D" transform="translate(0,0)"/>
<path d="" fill="#1F1D1E" transform="translate(0,0)"/>
<path d="" fill="#1C1E1C" transform="translate(0,0)"/>
<path d="" fill="#1A1B1B" transform="translate(0,0)"/>
<path d="" fill="#1C1C1D" transform="translate(0,0)"/>
<path d="" fill="#1B1C1C" transform="translate(0,0)"/>
<path d="" fill="#1B1B19" transform="translate(0,0)"/>
<path d="" fill="#1F1D1C" transform="translate(0,0)"/>
<path d="" fill="#1D1C1C" transform="translate(0,0)"/>
<path d="" fill="#1B1D1B" transform="translate(0,0)"/>
<path d="" fill="#191B1A" transform="translate(0,0)"/>
<path d="" fill="#1C1D1C" transform="translate(0,0)"/>
<path d="" fill="#FA2836" transform="translate(0,0)"/>
<path d="" fill="#1C1C1B" transform="translate(0,0)"/>
<path d="" fill="#1B1A1B" transform="translate(0,0)"/>
<path d="" fill="#201E1D" transform="translate(0,0)"/>
<path d="" fill="#F42A3C" transform="translate(0,0)"/>
<path d="" fill="#F52C3E" transform="translate(0,0)"/>
<path d="" fill="#1F1E1C" transform="translate(0,0)"/>
<path d="" fill="#1C201E" transform="translate(0,0)"/>
<path d="" fill="#1C1D1D" transform="translate(0,0)"/>
<path d="" fill="#1E1F20" transform="translate(0,0)"/>
<path d="" fill="#1D1C1D" transform="translate(0,0)"/>
<path d="" fill="#202323" transform="translate(0,0)"/>
<path d="" fill="#201D1D" transform="translate(0,0)"/>
<path d="" fill="#222222" transform="translate(0,0)"/>
<path d="" fill="#232423" transform="translate(0,0)"/>
<path d="" fill="#242523" transform="translate(0,0)"/>
<path d="" fill="#252323" transform="translate(0,0)"/>
<path d="" fill="#282828" transform="translate(0,0)"/>
<path d="" fill="#262624" transform="translate(0,0)"/>
<path d="" fill="#252526" transform="translate(0,0)"/>
<path d="" fill="#212120" transform="translate(0,0)"/>
<path d="" fill="#252424" transform="translate(0,0)"/>
<path d="" fill="#252523" transform="translate(0,0)"/>
<path d="" fill="#202121" transform="translate(0,0)"/>
<path d="" fill="#DF2737" transform="translate(0,0)"/>
<path d="" fill="#1E1E20" transform="translate(0,0)"/>
<path d="" fill="#F92434" transform="translate(0,0)"/>
<path d="" fill="#F62436" transform="translate(0,0)"/>
<path d="" fill="#FA2537" transform="translate(0,0)"/>
<path d="" fill="#EF2838" transform="translate(0,0)"/>
<path d="" fill="#F82333" transform="translate(0,0)"/>
<path d="" fill="#F82232" transform="translate(0,0)"/>
<path d="" fill="#FA2432" transform="translate(0,0)"/>
<path d="" fill="#F12B3C" transform="translate(0,0)"/>
<path d="" fill="#F12E3B" transform="translate(0,0)"/>
</svg>
