<?xml version="1.0" encoding="UTF-8"?>
<svg version="1.1" xmlns="http://www.w3.org/2000/svg" width="144" height="144">
<path d="M0 0 C47.52 0 95.04 0 144 0 C144 47.52 144 95.04 144 144 C96.48 144 48.96 144 0 144 C0 96.48 0 48.96 0 0 Z " fill="#FF3131" transform="translate(0,0)"/>
<path d="M0 0 C4.29 0 8.58 0 13 0 C13.33 7.26 13.66 14.52 14 22 C15.44375 21.175 16.8875 20.35 18.375 19.5 C24.70116584 16.38146754 29.79934695 15.66575002 36.5703125 17.81640625 C44.13372631 21.13551904 49.74458789 26.58315128 53.5 33.9375 C54.95256621 42.83446805 54.2515462 49.43980306 49 57 C44.25585223 62.28009751 38.8608812 66.35188251 31.65625 67.3125 C25.32760455 67.6250257 20.48609214 66.11170147 15 63 C14.67 62.67 14.34 62.34 14 62 C13.505 64.475 13.505 64.475 13 67 C8.71 67 4.42 67 0 67 C0 44.89 0 22.78 0 0 Z " fill="#FFFBFB" transform="translate(46,37)"/>
<path d="M0 0 C3.73929763 3.20511225 4.48465521 4.73427628 4.9375 9.625 C4.50589656 14.63159985 3.29012016 17.82275415 -0.5625 21.125 C-4.23789039 22.59515615 -7.50745103 22.9387416 -11.375 22.25 C-15.43671891 20.14392353 -17.67554936 18.47545227 -19.375 14.25 C-20.07108513 9.72544663 -19.98883227 6.2803613 -17.625 2.3125 C-12.25019536 -2.61440426 -6.49514798 -3.36785451 0 0 Z " fill="#FF3434" transform="translate(82.375,68.75)"/>
</svg>
