<?xml version="1.0" encoding="UTF-8"?>
<svg version="1.1" xmlns="http://www.w3.org/2000/svg" width="737" height="733">
<path d="M0 0 C1.58206057 0.00667536 3.16410534 0.0186375 4.74609375 0.03515625 C5.55240234 0.03966797 6.35871094 0.04417969 7.18945312 0.04882812 C9.18753131 0.06065107 11.18557158 0.07858711 13.18359375 0.09765625 C13.51359375 1.41765625 13.84359375 2.73765625 14.18359375 4.09765625 C14.92609375 3.62328125 15.66859375 3.14890625 16.43359375 2.66015625 C22.32132074 -0.68514318 28.99002942 -0.71756713 35.5546875 0.55859375 C41.31037282 2.25437625 45.62411568 5.25874964 50.18359375 9.09765625 C50.59609375 8.69933594 51.00859375 8.30101562 51.43359375 7.890625 C58.51131691 1.39744594 64.6123542 -0.48994077 74.23046875 -0.17578125 C83.22143871 0.65671597 89.18997139 4.34732405 95.18359375 11.09765625 C98.1968805 15.76285502 100.3068004 20.59633785 100.31298828 26.18603516 C100.31614044 27.0034317 100.3192926 27.82082825 100.32254028 28.66299438 C100.31950394 29.98030045 100.31950394 29.98030045 100.31640625 31.32421875 C100.31736298 32.22764008 100.3183197 33.1310614 100.31930542 34.06185913 C100.31998567 35.96995107 100.3181422 37.87804533 100.31396484 39.78613281 C100.30860199 42.7181513 100.31392146 45.65001746 100.3203125 48.58203125 C100.31965194 50.43359409 100.31837122 52.28515683 100.31640625 54.13671875 C100.31843048 55.01897125 100.32045471 55.90122375 100.32254028 56.81021118 C100.29855205 62.98269795 100.29855205 62.98269795 99.18359375 64.09765625 C96.67223271 64.19740657 94.1945596 64.23647808 91.68359375 64.22265625 C90.98105469 64.22652344 90.27851563 64.23039062 89.5546875 64.234375 C84.31020753 64.22427003 84.31020753 64.22427003 83.18359375 63.09765625 C83.07289951 60.75650174 83.02198048 58.43991279 83.0078125 56.09765625 C82.98458346 54.6380069 82.96046495 53.17837149 82.93554688 51.71875 C82.90066302 49.41934314 82.87122811 47.12043799 82.85766602 44.82080078 C83.12532796 32.26646459 83.12532796 32.26646459 78.18359375 21.09765625 C73.96117294 18.56255559 70.00127918 18.40081246 65.18359375 19.09765625 C61.06520951 21.46353656 59.576909 23.64056814 58.18359375 28.09765625 C57.96362273 30.83089815 57.83591918 33.47277318 57.8046875 36.20703125 C57.77919579 37.35815399 57.77919579 37.35815399 57.75318909 38.53253174 C57.70027923 40.97082421 57.65983536 43.40910076 57.62109375 45.84765625 C57.57718314 48.30041184 57.53056438 50.75303555 57.47828674 53.20562744 C57.44628934 54.72908573 57.41941178 56.25266154 57.39805603 57.77630615 C57.29539019 62.98585981 57.29539019 62.98585981 56.18359375 64.09765625 C53.50627995 64.19746839 50.860552 64.236455 48.18359375 64.22265625 C47.05824219 64.22845703 47.05824219 64.22845703 45.91015625 64.234375 C40.31020428 64.22426678 40.31020428 64.22426678 39.18359375 63.09765625 C39.07285389 60.50337007 39.02196823 57.93122807 39.0078125 55.3359375 C38.98460069 53.72589858 38.96048281 52.11587252 38.93554688 50.50585938 C38.90051926 47.96256085 38.87114448 45.41973034 38.85766602 42.8762207 C38.8421244 40.42471048 38.80186169 37.97458017 38.7578125 35.5234375 C38.75972092 34.77008621 38.76162933 34.01673492 38.76359558 33.24055481 C38.64553794 28.10712006 37.51061533 25.20423428 34.18359375 21.09765625 C31.15647419 18.71920517 27.9387205 18.73472417 24.1484375 18.84765625 C21.18598629 19.22458841 19.44384173 20.16979768 17.18359375 22.09765625 C14.89887074 26.40860621 14.85760984 30.65497982 14.8046875 35.42578125 C14.78769302 36.21539246 14.77069855 37.00500366 14.75318909 37.81854248 C14.70026484 40.32816695 14.65982944 42.83777584 14.62109375 45.34765625 C14.57718623 47.8717389 14.53056743 50.39569324 14.47828674 52.9196167 C14.44628457 54.48759274 14.41940853 56.05568311 14.39805603 57.62384033 C14.29538832 62.98586168 14.29538832 62.98586168 13.18359375 64.09765625 C10.34024327 64.197526 7.52662212 64.23643506 4.68359375 64.22265625 C3.88566406 64.22652344 3.08773438 64.23039062 2.265625 64.234375 C-3.68979858 64.22426392 -3.68979858 64.22426392 -4.81640625 63.09765625 C-4.91561488 61.17003808 -4.9443999 59.23876271 -4.94580078 57.30859375 C-4.94895294 56.07061035 -4.9521051 54.83262695 -4.95535278 53.55712891 C-4.953563 52.19563766 -4.95151205 50.83414674 -4.94921875 49.47265625 C-4.94989184 48.08642561 -4.95086191 46.70019508 -4.95211792 45.31396484 C-4.95359465 42.40526203 -4.95144115 39.49658988 -4.94677734 36.58789062 C-4.94108006 32.85169027 -4.94435919 29.11556173 -4.95034981 25.37936401 C-4.9539561 22.51586359 -4.95281652 19.65238032 -4.95022202 16.78887939 C-4.94955293 15.41090893 -4.95038051 14.03293693 -4.95270157 12.65496826 C-4.95522917 10.73221871 -4.95069649 8.80946373 -4.94580078 6.88671875 C-4.94500519 5.79053223 -4.94420959 4.6943457 -4.94338989 3.56494141 C-4.73601787 -0.46428546 -4.24048209 0.10850773 0 0 Z " fill="#FF3232" transform="translate(355.81640625,349.90234375)"/>
<path d="M0 0 C2.81256281 -0.02684312 5.62487241 -0.04676188 8.4375 -0.0625 C9.23994141 -0.07087891 10.04238281 -0.07925781 10.86914062 -0.08789062 C12.91295221 -0.0965143 14.95683902 -0.0522815 17 0 C18.77490546 1.77490546 18.23499973 4.37784902 18.31640625 6.78515625 C18.35830078 7.95498047 18.40019531 9.12480469 18.44335938 10.33007812 C18.48267578 11.56177734 18.52199219 12.79347656 18.5625 14.0625 C18.60568359 15.29806641 18.64886719 16.53363281 18.69335938 17.80664062 C18.79984198 20.87097335 18.90185424 23.93539073 19 27 C19.79664063 26.58427734 19.79664063 26.58427734 20.609375 26.16015625 C21.31578125 25.79792969 22.0221875 25.43570312 22.75 25.0625 C23.44609375 24.70285156 24.1421875 24.34320313 24.859375 23.97265625 C31.76424551 20.83522421 40.38308567 21.01406821 47.625 22.9375 C55.99869037 26.16517701 63.3693689 33.85475805 67 42 C70.1727485 50.5247586 69.69068795 59.99552246 65.9375 68.25 C61.61469702 75.97638924 55.42694326 82.02281645 47 85 C38.4332513 87.06879345 30.05315892 86.65747634 22 83 C20.515 82.01 20.515 82.01 19 81 C18.67 82.65 18.34 84.3 18 86 C15.18743719 86.02684312 12.37512759 86.04676188 9.5625 86.0625 C8.76005859 86.07087891 7.95761719 86.07925781 7.13085938 86.08789062 C5.08704779 86.0965143 3.04316098 86.0522815 1 86 C-0.98286473 84.01713527 -0.25648571 80.1277086 -0.31640625 77.41015625 C-0.33727798 76.61460327 -0.35814972 75.81905029 -0.37965393 74.99938965 C-0.44656176 72.35386655 -0.50514108 69.70824641 -0.5625 67.0625 C-0.58334656 66.16127411 -0.60419312 65.26004822 -0.62567139 64.33151245 C-0.95935168 49.74241156 -1.10574858 35.1552343 -1.125 20.5625 C-1.1275882 19.63905792 -1.13017639 18.71561584 -1.13284302 17.76419067 C-1.13864223 15.15655539 -1.13715642 12.54904213 -1.1328125 9.94140625 C-1.13479141 9.16309448 -1.13677032 8.38478271 -1.1388092 7.58288574 C-1.11538362 2.23076725 -1.11538362 2.23076725 0 0 Z M26 44 C22.98084181 48.42809867 22.09412892 52.72762672 23 58 C24.38528818 61.92889642 26.30523893 64.51050925 29.75 66.9375 C33.67737806 68.22145052 36.91494406 68.74199619 41 68 C46.10209922 65.30455136 49.17381037 62.4785689 51 57 C51.58700933 50.89510298 50.46454979 47.869097 47 43 C43.23189865 39.56437818 39.34071162 39.4845255 34.4375 39.65234375 C30.75133356 40.17809505 28.71016051 41.48814391 26 44 Z " fill="#FF3333" transform="translate(92,328)"/>
<path d="M0 0 C0.79792969 0.00386719 1.59585938 0.00773437 2.41796875 0.01171875 C3.21589844 0.00785156 4.01382813 0.00398438 4.8359375 0 C10.79136108 0.01011108 10.79136108 0.01011108 11.91796875 1.13671875 C12.07807356 3.87373053 12.17743703 6.58839465 12.234375 9.328125 C12.2551561 10.14796371 12.27593719 10.96780243 12.29734802 11.81248474 C12.36293369 14.44130776 12.42177001 17.07023379 12.48046875 19.69921875 C12.52364542 21.47722436 12.56725942 23.2552194 12.61132812 25.03320312 C12.71862418 29.40093509 12.81986579 33.76877102 12.91796875 38.13671875 C13.70171875 37.31171875 14.48546875 36.48671875 15.29296875 35.63671875 C17.91796875 33.13671875 17.91796875 33.13671875 19.91796875 33.13671875 C20.24796875 32.14671875 20.57796875 31.15671875 20.91796875 30.13671875 C28.10276334 22.36937325 28.10276334 22.36937325 32.57519531 21.79614258 C33.5597168 21.81185303 34.54423828 21.82756348 35.55859375 21.84375 C37.16347656 21.85825195 37.16347656 21.85825195 38.80078125 21.87304688 C39.91195312 21.89818359 41.023125 21.92332031 42.16796875 21.94921875 C43.85792969 21.96952148 43.85792969 21.96952148 45.58203125 21.99023438 C48.36116139 22.0255623 51.13932238 22.07489355 53.91796875 22.13671875 C53.42540389 26.40852018 50.98782668 28.41091553 48.0078125 31.33984375 C47.27746544 32.06382355 47.27746544 32.06382355 46.53236389 32.8024292 C44.98031425 34.33772725 43.41814739 35.862248 41.85546875 37.38671875 C40.79944518 38.42769095 39.74409837 39.46935015 38.68945312 40.51171875 C36.1067546 43.06139508 33.51487993 45.60151071 30.91796875 48.13671875 C32.42138273 52.14277963 34.02424046 54.64386246 36.98046875 57.76171875 C40.27761626 61.31777688 43.43284724 64.92672893 46.48046875 68.69921875 C50.48306919 73.64609465 54.6455377 78.42191064 58.91796875 83.13671875 C58.42296875 84.62171875 58.42296875 84.62171875 57.91796875 86.13671875 C37.806457 88.21253973 37.806457 88.21253973 32.2890625 83.81640625 C29.39711942 80.88839917 27.18378965 77.56151707 24.91796875 74.13671875 C23.37045424 72.20793255 21.80925734 70.28999066 20.23046875 68.38671875 C19.12175464 66.97360818 18.01567851 65.55839443 16.91796875 64.13671875 C14.93796875 65.12671875 14.93796875 65.12671875 12.91796875 66.13671875 C12.8929126 66.70704834 12.86785645 67.27737793 12.84204102 67.86499023 C12.72640326 70.43498032 12.60353251 73.00457402 12.48046875 75.57421875 C12.44115234 76.47205078 12.40183594 77.36988281 12.36132812 78.29492188 C12.31943359 79.14892578 12.27753906 80.00292969 12.234375 80.8828125 C12.19771729 81.67357178 12.16105957 82.46433105 12.12329102 83.27905273 C11.91796875 85.13671875 11.91796875 85.13671875 10.91796875 86.13671875 C8.07461827 86.2365885 5.26099712 86.27549756 2.41796875 86.26171875 C1.62003906 86.26558594 0.82210937 86.26945312 0 86.2734375 C-5.95542358 86.26332642 -5.95542358 86.26332642 -7.08203125 85.13671875 C-7.18244582 82.52521587 -7.21820182 79.9401351 -7.21142578 77.328125 C-7.2131781 76.51028534 -7.21493042 75.69244568 -7.21673584 74.849823 C-7.2211551 72.13293365 -7.21821611 69.41610882 -7.21484375 66.69921875 C-7.21551677 64.81974271 -7.21648678 62.94026676 -7.21774292 61.06079102 C-7.21921999 57.11636529 -7.21706504 53.17196217 -7.21240234 49.22753906 C-7.20670505 44.15959372 -7.20998401 39.09170133 -7.21597481 34.02375793 C-7.21958017 30.14114988 -7.21844195 26.25855447 -7.21584702 22.37594604 C-7.21517768 20.50674432 -7.21600641 18.63754147 -7.21832657 16.76834106 C-7.22085268 14.16063371 -7.21701309 11.55301334 -7.21142578 8.9453125 C-7.21345001 8.16501678 -7.21547424 7.38472107 -7.21755981 6.58078003 C-7.19088196 -0.10535699 -6.65667065 0.01130165 0 0 Z " fill="#FF3232" transform="translate(536.08203125,327.86328125)"/>
<path d="M0 0 C0.66 -1.32 1.32 -2.64 2 -4 C4.81256281 -4.02684312 7.62487241 -4.04676188 10.4375 -4.0625 C11.64116211 -4.07506836 11.64116211 -4.07506836 12.86914062 -4.08789062 C14.91295221 -4.0965143 16.95683902 -4.0522815 19 -4 C20.77916467 -2.22083533 20.12764835 0.38313299 20.12939453 2.7890625 C20.13254669 4.0270459 20.13569885 5.2650293 20.13894653 6.54052734 C20.13715675 7.90201859 20.1351058 9.26350951 20.1328125 10.625 C20.13348559 12.01123064 20.13445566 13.39746117 20.13571167 14.78369141 C20.1371884 17.69239422 20.1350349 20.60106637 20.13037109 23.50976562 C20.12467381 27.24596598 20.12795294 30.98209452 20.13394356 34.71829224 C20.13754985 37.58179266 20.13641027 40.44527593 20.13381577 43.30877686 C20.13314668 44.68674732 20.13397426 46.06471932 20.13629532 47.44268799 C20.13882292 49.36543754 20.13429024 51.28819252 20.12939453 53.2109375 C20.12859894 54.30712402 20.12780334 55.40331055 20.12698364 56.53271484 C20 59 20 59 19 60 C16.13732433 60.07325168 13.299281 60.09238205 10.4375 60.0625 C9.63119141 60.05798828 8.82488281 60.05347656 7.99414062 60.04882812 C5.99606244 60.03700518 3.99802217 60.01906914 2 60 C1.34 58.68 0.68 57.36 0 56 C-0.763125 56.474375 -1.52625 56.94875 -2.3125 57.4375 C-8.43748004 60.99853491 -15.08264075 60.87994809 -21.88671875 59.3515625 C-31.95620771 56.06528577 -37.64131181 50.38083652 -42.87109375 41.33203125 C-46.43306053 33.97391995 -46.31865574 24.34351109 -43.9765625 16.62890625 C-39.87222592 7.72861837 -33.2768692 0.58424492 -24 -3 C-15.0567897 -5.09023279 -7.90556397 -4.7731707 0 0 Z M-25.25 19.25 C-27.74016067 23.16310962 -28.53288595 26.4817602 -27.55859375 31.0859375 C-26.05004975 35.72363278 -24.23746963 38.35158148 -20 41 C-15.31065463 42.56311512 -11.48244475 42.52321579 -6.8125 40.875 C-2.58555565 38.0570371 -0.62613039 34.92013319 0.9375 30.125 C1.02176668 25.91166605 0.05882824 22.67144655 -2 19 C-6.57585266 14.64735967 -9.61036923 13.69660388 -15.75 13.78515625 C-20.07605646 14.19823456 -22.27369324 16.27369324 -25.25 19.25 Z " fill="#FF3232" transform="translate(207,354)"/>
<path d="M0 0 C0.66 0.33 1.32 0.66 2 1 C2.33 -0.32 2.66 -1.64 3 -3 C5.81256281 -3.02684312 8.62487241 -3.04676188 11.4375 -3.0625 C12.64116211 -3.07506836 12.64116211 -3.07506836 13.86914062 -3.08789062 C15.91295221 -3.0965143 17.95683902 -3.0522815 20 -3 C21.77916467 -1.22083533 21.12764835 1.38313299 21.12939453 3.7890625 C21.13254669 5.0270459 21.13569885 6.2650293 21.13894653 7.54052734 C21.13715675 8.90201859 21.1351058 10.26350951 21.1328125 11.625 C21.13348559 13.01123064 21.13445566 14.39746117 21.13571167 15.78369141 C21.1371884 18.69239422 21.1350349 21.60106637 21.13037109 24.50976562 C21.12467381 28.24596598 21.12795294 31.98209452 21.13394356 35.71829224 C21.13754985 38.58179266 21.13641027 41.44527593 21.13381577 44.30877686 C21.13314668 45.68674732 21.13397426 47.06471932 21.13629532 48.44268799 C21.13882292 50.36543754 21.13429024 52.28819252 21.12939453 54.2109375 C21.12859894 55.30712402 21.12780334 56.40331055 21.12698364 57.53271484 C21 60 21 60 20 61 C17.13732433 61.07325168 14.299281 61.09238205 11.4375 61.0625 C10.63119141 61.05798828 9.82488281 61.05347656 8.99414062 61.04882812 C6.99606244 61.03700518 4.99802217 61.01906914 3 61 C2.505 59.02 2.505 59.02 2 57 C1.2575 57.474375 0.515 57.94875 -0.25 58.4375 C-6.96041714 62.25023701 -14.82141541 61.79106386 -22.125 59.875 C-31.52052418 56.68434468 -37.09786213 50.45992214 -42 42 C-45.30137554 34.24894439 -45.02235345 25.27019032 -42.5 17.3125 C-38.82826662 8.41560758 -32.96491297 2.85015117 -24.296875 -1.125 C-16.10133603 -4.24711008 -7.75523459 -4.12512478 0 0 Z M-24.875 21.125 C-26.56610088 25.44670226 -26.6527451 29.42345011 -26 34 C-24.18766463 37.83378636 -22.69973473 39.53351018 -19.1875 41.875 C-14.28043432 43.60690553 -10.69502524 43.63147999 -5.8125 41.8125 C-2.05414747 39.39045059 0.37245565 37.32535269 1.5703125 32.88671875 C2.3828797 27.74334129 2.06955337 24.39969317 -1 20 C-5.65327325 15.80070462 -8.53067768 14.63966306 -14.6796875 14.71875 C-19.25413478 15.27322846 -21.92865841 17.78581286 -24.875 21.125 Z " fill="#FF3131" transform="translate(503,353)"/>
<path d="M0 0 C6.61972682 4.83308775 12.88875567 10.84480131 15 19 C15.58300731 23.65889909 15.97481619 28.30321921 16 33 C15 34 15 34 13.24729919 34.12025452 C12.48562943 34.11803391 11.72395966 34.11581329 10.93920898 34.11352539 C10.07839218 34.11344986 9.21757538 34.11337433 8.33067322 34.11329651 C7.39526199 34.10813522 6.45985077 34.10297394 5.49609375 34.09765625 C4.54307877 34.0962413 3.59006378 34.09482635 2.60816956 34.09336853 C-0.44875165 34.08775152 -3.50560077 34.07519616 -6.5625 34.0625 C-8.62955624 34.05748719 -10.69661362 34.05292391 -12.76367188 34.04882812 C-17.84247588 34.03777656 -22.9212257 34.02050055 -28 34 C-24.72534269 38.47908336 -24.72534269 38.47908336 -20 41 C-14.92811467 41.49887397 -13.00140318 41.66130399 -8.6875 38.8125 C-6.24831935 37.22367591 -5.27655262 36.96927193 -2.328125 37.296875 C2.73947518 38.63910424 7.44275749 40.41345695 12 43 C10.6869765 45.01642894 9.35291588 47.01069511 8 49 C7.443125 49.845625 6.88625 50.69125 6.3125 51.5625 C1.17170438 56.98117647 -5.17319921 59.61444909 -12.54296875 60.203125 C-22.03658116 60.37140173 -28.96812166 59.1138897 -36.3125 52.8125 C-42.82001318 46.4888726 -47.21126617 40.2112844 -48 31 C-48.0994615 20.87979251 -46.35613627 13.11798731 -39.54296875 5.4453125 C-28.53828626 -4.8628711 -13.33380749 -7.67704068 0 0 Z M-26 17 C-26.66 18.32 -27.32 19.64 -28 21 C-20.08 21 -12.16 21 -4 21 C-6.31066352 16.37867296 -7.27486702 15.75004925 -12 14 C-17.35549029 13.21054526 -21.41859573 13.94573049 -26 17 Z " fill="#FF3232" transform="translate(632,354)"/>
<path d="M0 0 C7.97072563 5.99599631 15.17203469 12.86310145 17 23 C17 26.96 17 30.92 17 35 C2.48 35 -12.04 35 -27 35 C-22.82693543 40.48195059 -22.82693543 40.48195059 -16.8515625 42.3359375 C-11.61011026 42.45134985 -11.61011026 42.45134985 -7.125 39.8125 C-3.36750875 37.63315507 -2.56620025 37.98840937 1.5 39.0625 C5.54896864 40.37717195 9.30046255 41.90026253 13 44 C9.43093083 51.28684956 4.48000022 56.9493148 -3.25 59.9375 C-11.79011886 62.3081192 -21.01977488 61.9677381 -29 58 C-36.05949008 53.70970216 -42.89721393 47.62613154 -45.52734375 39.5625 C-47.23159536 30.32292104 -47.43717707 19.99584864 -42 12 C-32.24545097 -1.23141799 -15.66122046 -8.70983664 0 0 Z M-25 18 C-25.66 19.32 -26.32 20.64 -27 22 C-19.08 22 -11.16 22 -3 22 C-5.38541667 17.13541667 -5.38541667 17.13541667 -8.1875 15.6875 C-14.55281017 14.13153529 -19.48661065 14.3244071 -25 18 Z " fill="#FF3232" transform="translate(331,353)"/>
<path d="M0 0 C4.37524181 4.70849118 6.99965979 10.01799412 7.40234375 16.4609375 C7.30953125 17.4509375 7.30953125 17.4509375 7.21484375 18.4609375 C1.27874709 19.35410019 -3.85490822 19.43134172 -9.78515625 18.4609375 C-10.28015625 15.4909375 -10.28015625 15.4909375 -10.78515625 12.4609375 C-13.70591022 11.62263454 -16.31180408 11.32566389 -19.34765625 11.3359375 C-20.11207031 11.33335937 -20.87648437 11.33078125 -21.6640625 11.328125 C-23.9751412 11.38186366 -23.9751412 11.38186366 -26.78515625 12.4609375 C-26.78515625 13.4509375 -26.78515625 14.4409375 -26.78515625 15.4609375 C-22.53376086 16.98344025 -18.41570437 17.93303009 -13.97265625 18.7109375 C-6.29516492 20.32426461 0.04762646 23.04852321 4.71484375 29.5859375 C7.19826202 34.34582252 7.66551986 38.05282412 7.21484375 43.4609375 C5.24647123 49.59135071 1.66132328 54.05408611 -3.78515625 57.4609375 C-12.36477283 60.71527483 -23.12388224 60.93787371 -31.71875 57.56640625 C-36.99839081 54.74194812 -40.78096586 51.18688973 -43.78515625 46.0234375 C-44.9533272 41.86182848 -45.08177355 38.76188833 -44.78515625 34.4609375 C-42.97399669 32.64977794 -40.17237398 33.07894302 -37.72265625 32.8984375 C-36.61792969 32.81464844 -35.51320312 32.73085938 -34.375 32.64453125 C-33.52035156 32.58394531 -32.66570312 32.52335937 -31.78515625 32.4609375 C-32.85765625 31.9040625 -33.93015625 31.3471875 -35.03515625 30.7734375 C-39.76461096 28.06952703 -42.64499855 24.45160311 -44.78515625 19.4609375 C-45.77505303 12.69280605 -44.75648002 7.05453405 -40.78515625 1.4609375 C-30.50533481 -8.81888394 -11.08528128 -9.5571134 0 0 Z M-28.78515625 33.4609375 C-28.42697385 37.80022352 -28.42697385 37.80022352 -26.0703125 41.31640625 C-23.27705968 42.71542005 -21.33682708 42.82851807 -18.22265625 42.7734375 C-17.27261719 42.76957031 -16.32257813 42.76570313 -15.34375 42.76171875 C-12.5455972 42.62894845 -12.5455972 42.62894845 -9.78515625 40.4609375 C-10.15800781 38.40950928 -10.15800781 38.40950928 -11.78515625 36.4609375 C-14.59472203 35.48437549 -17.4710934 35.11649 -20.41015625 34.7109375 C-21.21195313 34.58589844 -22.01375 34.46085937 -22.83984375 34.33203125 C-24.81920953 34.02570083 -26.8019346 33.7412215 -28.78515625 33.4609375 Z " fill="#FF3333" transform="translate(274.78515625,354.5390625)"/>
<path d="M0 0 C0.33 0 0.66 0 1 0 C1 13.86 1 27.72 1 42 C5.95 42 10.9 42 16 42 C11.93190692 44.03404654 10.22048871 44.24655953 5.8125 44.1875 C4.74644531 44.18105469 3.68039063 44.17460937 2.58203125 44.16796875 C0 44 0 44 -1 43 C-1.10116109 39.99360697 -1.13968674 37.01066703 -1.1328125 34.00390625 C-1.13376923 33.1000267 -1.13472595 32.19614716 -1.13571167 31.26487732 C-1.1363936 29.34902884 -1.13453841 27.43317806 -1.13037109 25.51733398 C-1.12502919 22.57856058 -1.13031245 19.63994045 -1.13671875 16.70117188 C-1.13605785 14.84374966 -1.13477644 12.98632754 -1.1328125 11.12890625 C-1.13483673 10.24554092 -1.13686096 9.3621756 -1.13894653 8.45204163 C-1.11495408 2.22990815 -1.11495408 2.22990815 0 0 Z " fill="#FF2727" transform="translate(93,370)"/>
<path d="M0 0 C2.10658382 4.21316763 2.26221542 7.06480643 2.1953125 11.609375 C2.1924826 12.33618469 2.18965271 13.06299438 2.18673706 13.81182861 C2.17557523 16.12472251 2.15047851 18.43722388 2.125 20.75 C2.11496501 22.32160898 2.10584006 23.89322404 2.09765625 25.46484375 C2.07564904 29.31004622 2.04114715 33.15495664 2 37 C-0.99531539 37.99843846 -2.17255732 38.00732761 -5.1875 37.5625 C-7.0746875 37.2840625 -7.0746875 37.2840625 -9 37 C-9 36.67 -9 36.34 -9 36 C-6.03 36 -3.06 36 0 36 C0 24.12 0 12.24 0 0 Z " fill="#FF2626" transform="translate(454,376)"/>
<path d="M0 0 C0.99 0.495 0.99 0.495 2 1 C2.21703874 6.21387121 2.41389953 11.42796516 2.59204102 16.64331055 C2.65549567 18.41760649 2.72447439 20.19171379 2.79907227 21.96557617 C2.90530786 24.51451748 2.9916993 27.06347571 3.07421875 29.61328125 C3.11157639 30.40712723 3.14893402 31.20097321 3.18742371 32.01887512 C3.2487793 34.26293945 3.2487793 34.26293945 3 38 C2.01 38.99 1.02 39.98 0 41 C0 27.47 0 13.94 0 0 Z " fill="#FF4444" transform="translate(546,330)"/>
<path d="M0 0 C0 0.66 0 1.32 0 2 C-4.29 1.34 -8.58 0.68 -13 0 C-13 -0.33 -13 -0.66 -13 -1 C-8.05632546 -2.20577428 -4.79137588 -1.6290678 0 0 Z " fill="#FF5757" transform="translate(261,389)"/>
<path d="" fill="#FFFFFF" transform="translate(0,0)"/>
<path d="" fill="#FF8080" transform="translate(0,0)"/>
<path d="" fill="#FF8080" transform="translate(0,0)"/>
<path d="" fill="#FFFFFF" transform="translate(0,0)"/>
</svg>
